<?xml version="1.0" encoding="UTF-8"?>
<svg width="139px" height="52px" viewBox="0 0 139 52" version="1.1" xmlns="http://www.w3.org/2000/svg" xmlns:xlink="http://www.w3.org/1999/xlink">
    <!-- Generator: Sketch 52.6 (67491) - http://www.bohemiancoding.com/sketch -->
    <title>logo/kaleo</title>
    <desc>Created with Sketch.</desc>
    <g id="Symbols" stroke="none" stroke-width="1" fill="none" fill-rule="evenodd">
        <g id="nav/header" transform="translate(-140.000000, -34.000000)">
            <g id="logo/kaleo" transform="translate(140.000000, 34.000000)">
                <polygon id="Fill_yellow" fill="#F7AB2A" points="14.3199 42.72695 14.3199 51.30195 36.14065 51.30195 22.77065 32.73795"></polygon>
                <polygon id="Fill_red" fill="#EA4E61" points="42.892675 48.46905 42.892675 21.3808 36.491175 14.99855 27.258175 27.02805"></polygon>
                <polygon id="Fill_green" fill="#83BB32" points="0 21.380975 0 51.302475 7.0385 51.302475 7.03325 14.366975"></polygon>
                <polygon id="Fill_blue" fill="#21B5B8" points="21.446775 0.00035 14.329525 7.09835 14.329525 32.62035 31.376275 9.9036"></polygon>
                <path d="M82.204325,32.14995 C88.189325,32.14995 90.161575,34.05395 90.161575,37.7272 L90.161575,49.56245 C90.161575,50.0052 90.095075,50.34295 89.482575,50.54945 C87.713325,51.0587 84.720825,51.29495 81.829825,51.29495 C77.068075,51.29495 74.656575,50.54945 74.656575,45.61795 C74.656575,41.29895 76.933325,40.2087 81.115825,40.2087 L86.047325,40.2087 L86.047325,38.4412 C86.047325,36.5372 84.927325,35.7217 82.204325,35.7217 L76.627075,35.7217 C76.217575,35.7217 76.116075,35.6167 76.116075,35.2107 L76.116075,33.1352 C76.116075,32.72745 76.254325,32.66095 76.592075,32.5927 C78.634325,32.2182 80.470075,32.14995 82.204325,32.14995 Z M86.047325,47.4887 L86.047325,43.1697 L81.355575,43.1697 C79.551325,43.1697 78.737575,43.7472 78.737575,45.4482 C78.737575,47.38545 79.652825,47.86145 82.169325,47.86145 C83.019825,47.86145 84.890575,47.7932 86.047325,47.4887 Z M111.146,32.14995 C117.5405,32.14995 119.03675,33.9857 119.10325,41.3672 L119.10325,42.38745 C119.10325,43.0332 118.90025,43.30445 117.94825,43.30445 L107.1665,43.30445 C107.26975,46.90945 108.08525,47.72495 111.384,47.72495 L117.19925,47.72495 C117.5405,47.72495 117.71025,47.89645 117.71025,48.2342 L117.71025,50.34295 C117.71025,50.71745 117.5405,50.85395 117.23425,50.9222 C115.43175,51.1952 113.323,51.29495 111.146,51.29495 C104.5135,51.29495 103.0155,49.3927 103.0155,41.7382 C103.0155,34.05395 104.5135,32.14995 111.146,32.14995 Z M107.1665,40.34695 L114.95575,40.34695 C114.92075,36.6737 114.17175,35.7217 111.146,35.7217 C107.98375,35.7217 107.2015,36.6737 107.1665,40.34695 Z M130.59935,32.14995 C137.4016,32.14995 138.8961,34.05395 138.8961,41.7382 C138.8961,49.3927 137.4016,51.29495 130.59935,51.29495 C123.79535,51.29495 122.3341,49.3927 122.3341,41.7382 C122.3341,34.05395 123.79535,32.14995 130.59935,32.14995 Z M130.59935,47.72495 C134.2376,47.72495 134.74685,46.5367 134.74685,41.7382 C134.74685,36.9117 134.2376,35.7217 130.59935,35.7217 C126.9611,35.7217 126.4501,36.9117 126.4501,41.7382 C126.4501,46.5367 126.9611,47.72495 130.59935,47.72495 Z M98.35945,25.110575 C98.6972,25.110575 98.8687,25.280325 98.8687,25.621575 L98.8687,50.615075 C98.8687,50.958075 98.6972,51.126075 98.35945,51.126075 L95.2637,51.126075 C94.9242,51.126075 94.7527,50.958075 94.7527,50.615075 L94.7527,25.621575 C94.7527,25.280325 94.9242,25.110575 95.2637,25.110575 L98.35945,25.110575 Z M63.904575,37.4017 L73.982825,50.16795 C74.289075,50.5722 74.322325,51.08145 73.407075,51.08145 L69.747825,51.08145 C69.408325,51.08145 69.137075,50.9467 69.000575,50.7087 L61.151825,40.6392 L58.052575,44.23545 L58.052575,50.5722 C58.052575,50.91345 57.882825,51.08145 57.543325,51.08145 L54.188575,51.08145 C53.849075,51.08145 53.679325,50.91345 53.679325,50.5722 L53.679325,25.66445 C53.679325,25.32495 53.849075,25.1552 54.188575,25.1552 L57.543325,25.1552 C57.882825,25.1552 58.052575,25.32495 58.052575,25.66445 L58.052575,38.3047 L68.927075,25.5227 C69.133575,25.3197 69.396075,25.18495 69.700575,25.18495 L73.561075,25.18495 C74.171825,25.18495 74.080825,25.4877 73.748325,25.82895 L63.904575,37.4017 Z" id="Combined-Shape" fill="#324549"></path>
            </g>
        </g>
    </g>
</svg>