<?xml version="1.0" encoding="utf-8"?>
<!-- Generator: Adobe Illustrator 16.0.3, SVG Export Plug-In . SVG Version: 6.00 Build 0)  -->
<!DOCTYPE svg PUBLIC "-//W3C//DTD SVG 1.1//EN" "http://www.w3.org/Graphics/SVG/1.1/DTD/svg11.dtd">
<svg version="1.1" id="Layer_1" xmlns="http://www.w3.org/2000/svg" xmlns:xlink="http://www.w3.org/1999/xlink" x="0px" y="0px"
	 width="185.782px" height="185.782px" viewBox="0 0 185.782 185.782" enable-background="new 0 0 185.782 185.782"
	 xml:space="preserve">
<g>
	<g>
		<path fill="#124F8A" d="M185.782,92.891c0,0.964-2.503,1.884-2.533,2.84c-0.028,0.963,2.413,2.038,2.354,2.994
			c-0.061,0.96-2.615,1.724-2.704,2.677c-0.09,0.959,2.279,2.184,2.161,3.135c-0.12,0.954-2.718,1.556-2.865,2.502
			c-0.149,0.952,2.138,2.321,1.96,3.263c-0.182,0.945-2.812,1.384-3.019,2.318c-0.209,0.939,1.986,2.451,1.749,3.379
			c-0.238,0.933-2.892,1.204-3.158,2.124c-0.267,0.923,1.829,2.57,1.533,3.481c-0.298,0.915-2.963,1.018-3.287,1.92
			c-0.325,0.904,1.66,2.682,1.309,3.573c-0.354,0.893-3.02,0.828-3.401,1.706c-0.382,0.882,1.49,2.782,1.08,3.65
			c-0.408,0.869-3.065,0.634-3.502,1.488c-0.436,0.856,1.312,2.871,0.85,3.71c-0.464,0.842-3.102,0.44-3.59,1.265
			c-0.49,0.827,1.128,2.946,0.612,3.756c-0.515,0.81-3.121,0.245-3.661,1.038s0.941,3.01,0.378,3.785
			c-0.565,0.776-3.132,0.049-3.72,0.806c-0.59,0.759,0.75,3.064,0.138,3.803c-0.61,0.739-3.126-0.147-3.761,0.571
			c-0.635,0.72,0.56,3.105-0.099,3.806c-0.658,0.699-3.112-0.343-3.789,0.336c-0.68,0.678,0.362,3.132-0.339,3.79
			c-0.698,0.658-3.083-0.536-3.804,0.099c-0.72,0.634,0.169,3.149-0.572,3.761c-0.738,0.612-3.044-0.728-3.803-0.138
			c-0.758,0.587-0.029,3.154-0.807,3.719c-0.773,0.563-2.991-0.917-3.787-0.377c-0.792,0.54-0.226,3.147-1.037,3.661
			c-0.809,0.514-2.929-1.103-3.756-0.612c-0.824,0.488-0.422,3.124-1.265,3.587c-0.839,0.463-2.854-1.285-3.709-0.847
			c-0.853,0.436-0.62,3.091-1.489,3.5c-0.866,0.409-2.766-1.462-3.648-1.08c-0.879,0.381-0.813,3.048-1.705,3.402
			c-0.892,0.352-2.669-1.635-3.573-1.31c-0.902,0.325-1.005,2.99-1.918,3.287c-0.913,0.296-2.561-1.8-3.484-1.533
			c-0.919,0.267-1.19,2.921-2.124,3.16c-0.927,0.236-2.438-1.96-3.378-1.751c-0.934,0.207-1.373,2.839-2.317,3.017
			c-0.94,0.179-2.312-2.108-3.263-1.959c-0.945,0.148-1.548,2.747-2.503,2.866c-0.951,0.119-2.174-2.249-3.133-2.16
			c-0.952,0.088-1.717,2.642-2.678,2.702c-0.954,0.059-2.031-2.38-2.993-2.353c-0.955,0.03-1.877,2.534-2.841,2.534
			c-0.962,0-1.886-2.504-2.842-2.534c-0.962-0.027-2.035,2.412-2.99,2.353c-0.961-0.06-1.727-2.614-2.681-2.702
			c-0.958-0.091-2.182,2.279-3.132,2.16c-0.956-0.119-1.558-2.718-2.504-2.866c-0.95-0.149-2.321,2.138-3.262,1.959
			c-0.945-0.178-1.383-2.81-2.317-3.018c-0.939-0.208-2.453,1.988-3.381,1.752c-0.932-0.24-1.202-2.893-2.123-3.16
			c-0.923-0.267-2.571,1.828-3.481,1.533c-0.915-0.298-1.018-2.962-1.918-3.287c-0.906-0.325-2.684,1.662-3.575,1.309
			c-0.893-0.354-0.827-3.021-1.707-3.401c-0.881-0.382-2.78,1.489-3.649,1.08c-0.869-0.409-0.633-3.066-1.488-3.503
			c-0.855-0.436-2.869,1.313-3.709,0.85c-0.842-0.466-0.44-3.101-1.266-3.59c-0.827-0.489-2.946,1.128-3.756,0.612
			c-0.809-0.514-0.243-3.121-1.037-3.66c-0.794-0.541-3.011,0.942-3.787,0.377c-0.774-0.566-0.048-3.13-0.806-3.72
			c-0.758-0.589-3.063,0.752-3.802,0.14c-0.74-0.613,0.146-3.128-0.572-3.762c-0.721-0.636-3.106,0.558-3.804-0.1
			c-0.699-0.656,0.342-3.11-0.337-3.79c-0.679-0.679-3.133,0.363-3.791-0.335c-0.656-0.702,0.537-3.086-0.099-3.805
			c-0.635-0.719-3.149,0.166-3.763-0.573c-0.612-0.739,0.729-3.045,0.141-3.802c-0.59-0.756-3.154-0.029-3.72-0.806
			c-0.564-0.776,0.918-2.993,0.377-3.786c-0.539-0.793-3.146-0.227-3.661-1.037c-0.516-0.811,1.104-2.93,0.613-3.756
			c-0.488-0.824-3.126-0.423-3.589-1.265c-0.462-0.841,1.284-2.853,0.849-3.712c-0.436-0.852-3.093-0.617-3.503-1.486
			c-0.409-0.867,1.462-2.768,1.08-3.649c-0.38-0.88-3.045-0.813-3.4-1.708c-0.353-0.891,1.636-2.668,1.31-3.572
			c-0.323-0.903-2.99-1.003-3.286-1.918c-0.297-0.912,1.8-2.561,1.532-3.484c-0.268-0.92-2.92-1.191-3.158-2.122
			c-0.238-0.929,1.959-2.44,1.749-3.378c-0.208-0.937-2.838-1.374-3.018-2.319c-0.179-0.941,2.109-2.312,1.96-3.263
			c-0.148-0.945-2.745-1.549-2.864-2.503c-0.12-0.95,2.249-2.175,2.159-3.133c-0.09-0.953-2.645-1.717-2.704-2.677
			c-0.059-0.956,2.383-2.031,2.353-2.994C2.501,94.775,0,93.855,0,92.891c0-0.964,2.501-1.884,2.531-2.841
			c0.03-0.962-2.411-2.037-2.353-2.993c0.06-0.961,2.614-1.724,2.704-2.677c0.09-0.958-2.279-2.184-2.159-3.133
			c0.119-0.956,2.715-1.558,2.863-2.504c0.15-0.95-2.136-2.321-1.959-3.263c0.181-0.945,2.811-1.382,3.018-2.318
			c0.21-0.939-1.987-2.451-1.749-3.378c0.238-0.933,2.891-1.203,3.159-2.124c0.268-0.924-1.828-2.573-1.533-3.482
			c0.298-0.915,2.963-1.018,3.287-1.92c0.325-0.904-1.662-2.682-1.311-3.573c0.355-0.893,3.021-0.825,3.403-1.707
			c0.38-0.882-1.49-2.781-1.083-3.649c0.412-0.867,3.067-0.635,3.503-1.487c0.438-0.857-1.31-2.871-0.847-3.711
			c0.464-0.841,3.099-0.44,3.589-1.265c0.489-0.828-1.128-2.946-0.614-3.756c0.518-0.81,3.121-0.245,3.661-1.038
			s-0.941-3.01-0.376-3.784c0.566-0.778,3.131-0.05,3.718-0.808c0.59-0.76-0.75-3.063-0.138-3.802
			c0.612-0.742,3.126,0.146,3.763-0.574c0.634-0.719-0.559-3.104,0.098-3.802c0.657-0.7,3.112,0.342,3.793-0.336
			c0.676-0.681-0.364-3.133,0.335-3.791c0.698-0.658,3.085,0.536,3.804-0.097c0.72-0.636-0.168-3.151,0.572-3.763
			c0.738-0.612,3.044,0.727,3.802,0.138c0.758-0.587,0.03-3.154,0.807-3.719c0.776-0.563,2.994,0.917,3.787,0.377
			c0.792-0.54,0.227-3.146,1.037-3.661c0.809-0.514,2.929,1.103,3.755,0.613c0.825-0.489,0.425-3.125,1.266-3.588
			c0.841-0.463,2.854,1.286,3.71,0.847c0.854-0.436,0.619-3.091,1.488-3.5c0.866-0.41,2.768,1.462,3.649,1.08
			c0.88-0.382,0.812-3.048,1.706-3.401c0.891-0.354,2.669,1.633,3.573,1.309c0.9-0.325,1.005-2.99,1.919-3.287
			c0.911-0.296,2.561,1.8,3.483,1.532c0.919-0.266,1.19-2.92,2.122-3.159c0.929-0.236,2.439,1.96,3.379,1.752
			c0.937-0.21,1.372-2.84,2.318-3.018c0.94-0.179,2.311,2.108,3.262,1.959c0.946-0.148,1.549-2.747,2.503-2.866
			c0.95-0.119,2.176,2.251,3.133,2.16c0.953-0.088,1.719-2.642,2.68-2.702c0.955-0.059,2.028,2.38,2.99,2.351
			C91.005,2.503,91.929,0,92.891,0c0.964,0,1.886,2.503,2.841,2.532c0.964,0.029,2.039-2.41,2.993-2.351
			c0.961,0.06,1.726,2.614,2.678,2.702c0.96,0.091,2.184-2.279,3.133-2.16c0.955,0.119,1.56,2.718,2.503,2.866
			c0.952,0.149,2.322-2.138,3.263-1.959c0.945,0.178,1.384,2.809,2.318,3.018c0.938,0.208,2.451-1.988,3.38-1.752
			c0.932,0.239,1.202,2.893,2.122,3.159c0.923,0.268,2.572-1.827,3.484-1.532c0.915,0.298,1.017,2.962,1.918,3.287
			c0.904,0.326,2.683-1.663,3.573-1.309c0.895,0.354,0.827,3.019,1.707,3.401c0.883,0.382,2.782-1.49,3.648-1.08
			c0.869,0.409,0.635,3.066,1.489,3.502c0.854,0.437,2.87-1.312,3.71-0.849c0.841,0.464,0.44,3.099,1.265,3.589
			c0.826,0.49,2.946-1.127,3.755-0.611c0.812,0.514,0.245,3.119,1.037,3.66c0.796,0.541,3.011-0.941,3.787-0.377
			c0.777,0.566,0.049,3.131,0.808,3.72c0.758,0.587,3.063-0.752,3.802-0.14c0.74,0.613-0.148,3.128,0.572,3.762
			c0.721,0.636,3.104-0.558,3.804,0.1c0.701,0.656-0.341,3.11,0.337,3.79c0.678,0.678,3.133-0.363,3.79,0.335
			c0.657,0.701-0.538,3.085,0.098,3.805c0.638,0.719,3.15-0.168,3.764,0.571c0.611,0.741-0.729,3.046-0.14,3.804
			c0.589,0.757,3.154,0.029,3.718,0.806c0.566,0.776-0.916,2.993-0.376,3.786s3.146,0.227,3.661,1.037
			c0.517,0.809-1.103,2.93-0.612,3.757c0.487,0.824,3.124,0.424,3.589,1.266c0.463,0.84-1.286,2.853-0.849,3.707
			c0.435,0.855,3.093,0.62,3.501,1.49c0.409,0.868-1.463,2.767-1.08,3.648c0.383,0.88,3.048,0.813,3.4,1.708
			c0.354,0.89-1.634,2.669-1.307,3.572c0.324,0.903,2.987,1.004,3.285,1.919c0.296,0.911-1.8,2.559-1.533,3.483
			c0.267,0.92,2.92,1.191,3.158,2.123c0.237,0.927-1.957,2.439-1.749,3.38c0.207,0.934,2.839,1.372,3.019,2.317
			c0.178,0.94-2.109,2.311-1.96,3.262c0.147,0.945,2.745,1.548,2.865,2.503c0.118,0.949-2.251,2.175-2.161,3.133
			c0.089,0.953,2.644,1.716,2.704,2.677c0.06,0.956-2.382,2.031-2.354,2.993C183.279,91.007,185.782,91.927,185.782,92.891"/>
		<path fill="#FFFFFF" d="M177.248,92.891c0,46.589-37.768,84.357-84.356,84.357c-46.59,0-84.357-37.768-84.357-84.357
			c0-46.589,37.768-84.357,84.357-84.357C139.48,8.534,177.248,46.302,177.248,92.891"/>
		<path fill="#707071" d="M37.645,145.934c-0.184-0.623-0.196-1.24-0.039-1.857c0.157-0.615,0.477-1.166,0.959-1.652
			c0.483-0.487,1.033-0.811,1.646-0.974c0.615-0.161,1.234-0.151,1.86,0.03c0.625,0.18,1.189,0.519,1.69,1.016
			c0.391,0.388,0.683,0.809,0.877,1.262c0.193,0.454,0.277,0.921,0.251,1.406l-0.911-0.01c0.015-0.771-0.258-1.435-0.82-1.993
			c-0.373-0.369-0.791-0.619-1.259-0.751c-0.465-0.131-0.929-0.134-1.389-0.008c-0.462,0.124-0.871,0.368-1.231,0.732
			c-0.359,0.361-0.6,0.774-0.722,1.235c-0.121,0.461-0.116,0.924,0.02,1.389c0.134,0.465,0.39,0.883,0.762,1.253
			c0.557,0.552,1.226,0.819,2.005,0.797l0.017,0.912c-0.485,0.03-0.956-0.049-1.415-0.24c-0.459-0.191-0.885-0.481-1.275-0.869
			C38.168,147.115,37.827,146.555,37.645,145.934"/>
		<path fill="#707071" d="M46.646,152.81c0.47,0.07,0.928,0.017,1.369-0.161c0.443-0.177,0.822-0.466,1.139-0.869
			c0.315-0.402,0.505-0.839,0.573-1.311c0.069-0.472,0.012-0.928-0.167-1.369c-0.18-0.439-0.473-0.819-0.88-1.139
			s-0.849-0.517-1.324-0.591c-0.476-0.075-0.935-0.023-1.378,0.155s-0.822,0.467-1.137,0.868c-0.315,0.402-0.507,0.839-0.575,1.312
			c-0.068,0.472-0.01,0.93,0.176,1.374c0.186,0.445,0.481,0.827,0.889,1.147C45.737,152.543,46.177,152.739,46.646,152.81
			 M43.551,151.373c-0.256-0.598-0.341-1.214-0.257-1.849c0.083-0.635,0.336-1.22,0.754-1.753c0.42-0.533,0.928-0.918,1.524-1.149
			c0.597-0.232,1.216-0.294,1.858-0.187c0.642,0.106,1.244,0.38,1.804,0.821c0.555,0.434,0.959,0.952,1.215,1.55
			c0.258,0.599,0.345,1.215,0.26,1.843c-0.085,0.63-0.34,1.215-0.763,1.754s-0.932,0.925-1.522,1.155
			c-0.593,0.232-1.209,0.294-1.852,0.187c-0.642-0.107-1.241-0.377-1.796-0.814C44.217,152.491,43.808,151.971,43.551,151.373"/>
		<path fill="#707071" d="M50.836,156.316c-0.169-0.733,0.013-1.53,0.536-2.39l2.091-3.424l0.859,0.524l-2.069,3.391
			c-0.787,1.291-0.616,2.282,0.516,2.971c0.55,0.336,1.068,0.434,1.555,0.294c0.489-0.139,0.93-0.537,1.33-1.19l2.069-3.391
			l0.834,0.509l-2.092,3.425c-0.526,0.866-1.154,1.39-1.88,1.573c-0.726,0.184-1.489,0.03-2.293-0.46
			C51.489,157.658,51.003,157.047,50.836,156.316"/>
		<path fill="#707071" d="M62.784,159.715c0.421-0.109,0.74-0.393,0.955-0.855c0.216-0.463,0.229-0.889,0.04-1.279
			c-0.189-0.389-0.573-0.717-1.151-0.987l-1.552-0.726l-1.344,2.878l1.553,0.725C61.864,159.74,62.362,159.822,62.784,159.715
			 M61.823,163.038l-0.463-2.607c-0.177-0.068-0.313-0.125-0.411-0.169l-1.58-0.74l-0.908,1.946l-0.913-0.426l2.984-6.393
			l2.494,1.164c0.828,0.386,1.388,0.889,1.677,1.506c0.291,0.617,0.274,1.273-0.051,1.967c-0.23,0.494-0.548,0.857-0.954,1.091
			c-0.405,0.233-0.87,0.323-1.395,0.271l0.515,2.855L61.823,163.038z"/>
		<path fill="#707071" d="M65.54,164.345c-0.412-0.32-0.708-0.65-0.886-0.991l0.613-0.617c0.173,0.317,0.433,0.617,0.777,0.899
			c0.348,0.283,0.729,0.497,1.148,0.644c0.55,0.194,0.995,0.246,1.333,0.155c0.339-0.091,0.563-0.292,0.673-0.602
			c0.079-0.229,0.071-0.44-0.028-0.636c-0.1-0.195-0.244-0.368-0.437-0.522c-0.19-0.152-0.47-0.347-0.836-0.582
			c-0.458-0.298-0.82-0.56-1.084-0.789c-0.266-0.228-0.463-0.506-0.594-0.834c-0.132-0.327-0.121-0.702,0.027-1.128
			c0.125-0.354,0.332-0.641,0.62-0.86c0.286-0.22,0.651-0.348,1.091-0.385c0.441-0.038,0.943,0.043,1.506,0.241
			c0.395,0.139,0.763,0.326,1.106,0.56c0.346,0.236,0.621,0.497,0.826,0.782l-0.581,0.651c-0.216-0.276-0.467-0.515-0.752-0.718
			c-0.285-0.205-0.579-0.36-0.883-0.467c-0.539-0.189-0.978-0.234-1.317-0.131c-0.337,0.101-0.561,0.307-0.67,0.617
			c-0.081,0.229-0.07,0.441,0.032,0.636c0.102,0.197,0.251,0.374,0.449,0.533c0.196,0.159,0.472,0.35,0.827,0.575
			c0.458,0.296,0.818,0.559,1.08,0.786c0.263,0.228,0.459,0.503,0.591,0.828c0.131,0.324,0.125,0.695-0.022,1.114
			c-0.125,0.348-0.33,0.634-0.623,0.854c-0.292,0.222-0.66,0.349-1.106,0.381c-0.443,0.032-0.949-0.051-1.515-0.251
			C66.407,164.912,65.951,164.666,65.54,164.345"/>
	</g>
	<polygon fill="#707071" points="76.852,166.938 76.639,167.788 71.67,166.548 73.38,159.702 78.212,160.909 77.999,161.759 
		74.146,160.797 73.621,162.9 77.054,163.757 76.846,164.588 73.413,163.731 72.862,165.941 	"/>
	<g>
		<path fill="#707071" d="M83.497,168.496c-0.533-0.37-0.933-0.843-1.196-1.421c-0.266-0.579-0.362-1.209-0.29-1.89
			c0.07-0.682,0.294-1.278,0.671-1.789c0.377-0.512,0.865-0.894,1.466-1.146s1.251-0.342,1.953-0.269
			c0.548,0.056,1.039,0.2,1.476,0.432c0.437,0.231,0.795,0.542,1.078,0.936l-0.717,0.565c-0.47-0.609-1.1-0.955-1.889-1.036
			c-0.522-0.056-1.004,0.014-1.45,0.204c-0.445,0.191-0.808,0.478-1.087,0.866c-0.281,0.385-0.447,0.833-0.499,1.341
			c-0.052,0.509,0.018,0.98,0.213,1.415c0.195,0.436,0.491,0.793,0.887,1.07c0.398,0.278,0.857,0.444,1.379,0.498
			c0.781,0.08,1.468-0.133,2.062-0.639l0.587,0.699c-0.359,0.329-0.776,0.563-1.253,0.702c-0.479,0.14-0.991,0.182-1.538,0.125
			C84.646,169.084,84.029,168.865,83.497,168.496"/>
	</g>
	<polygon fill="#707071" points="95.402,168.566 95.398,169.442 90.278,169.426 90.301,162.371 95.279,162.385 95.277,163.263 
		91.307,163.25 91.299,165.417 94.838,165.428 94.836,166.286 91.297,166.275 91.289,168.552 	"/>
	<g>
		<path fill="#707071" d="M101.699,165.507c0.308-0.306,0.437-0.715,0.388-1.223c-0.051-0.508-0.256-0.882-0.617-1.12
			c-0.362-0.237-0.858-0.326-1.495-0.264l-1.704,0.167l0.31,3.16l1.705-0.166C100.92,165.998,101.391,165.815,101.699,165.507
			 M102.564,168.855l-1.727-2.008c-0.186,0.032-0.333,0.053-0.439,0.063l-1.736,0.17l0.209,2.137l-1.003,0.098l-0.687-7.022
			l2.739-0.268c0.908-0.089,1.646,0.059,2.21,0.442c0.565,0.383,0.883,0.957,0.958,1.719c0.053,0.542-0.035,1.016-0.265,1.424
			c-0.232,0.406-0.585,0.723-1.063,0.944l1.896,2.195L102.564,168.855z"/>
	</g>
	<polygon fill="#707071" points="106.026,162.041 103.651,162.5 103.484,161.639 109.215,160.531 109.381,161.391 107.006,161.852 
		108.179,167.917 107.197,168.107 	"/>
	
		<rect x="111.314" y="159.927" transform="matrix(-0.9673 0.2534 -0.2534 -0.9673 261.4136 293.2319)" fill="#707071" width="1.01" height="7.056"/>
	<polygon fill="#707071" points="114.84,159.821 115.629,162.15 118.981,161.016 119.258,161.836 115.907,162.972 116.824,165.674 
		115.867,165.997 113.604,159.315 118.319,157.716 118.601,158.547 	"/>
	
		<rect x="121.061" y="156.626" transform="matrix(-0.923 0.3849 -0.3849 -0.923 295.4052 261.1788)" fill="#707071" width="1.007" height="7.054"/>
	<g>
		<path fill="#707071" d="M126.895,161.196c-0.647-0.02-1.239-0.201-1.776-0.541c-0.536-0.341-0.959-0.816-1.272-1.428
			c-0.311-0.61-0.447-1.233-0.41-1.868c0.037-0.633,0.24-1.219,0.607-1.758c0.367-0.538,0.864-0.967,1.492-1.288
			c0.492-0.251,0.98-0.398,1.473-0.441c0.49-0.043,0.963,0.024,1.414,0.2l-0.294,0.863c-0.726-0.254-1.442-0.203-2.147,0.159
			c-0.469,0.238-0.836,0.559-1.105,0.96c-0.271,0.402-0.417,0.842-0.442,1.318c-0.025,0.477,0.079,0.942,0.311,1.397
			c0.232,0.454,0.55,0.811,0.95,1.072c0.399,0.259,0.843,0.398,1.326,0.415c0.484,0.016,0.959-0.095,1.427-0.334
			c0.7-0.358,1.161-0.909,1.383-1.656l0.873,0.267c-0.123,0.47-0.347,0.894-0.669,1.271c-0.326,0.377-0.733,0.689-1.225,0.942
			C128.18,161.066,127.542,161.217,126.895,161.196"/>
	</g>
	<path fill="#707071" d="M135.095,153.928l-3.158-2.068l0.606,3.727L135.095,153.928z M135.831,154.412l-3.145,2.044l0.311,1.902
		l-0.871,0.566l-1.164-7.657l0.835-0.544l6.533,4.169l-0.887,0.577L135.831,154.412z"/>
	<polygon fill="#707071" points="136.748,148.254 134.847,149.75 134.304,149.062 138.889,145.452 139.432,146.14 137.53,147.635 
		141.354,152.49 140.569,153.107 	"/>
	<polygon fill="#707071" points="147.764,145.596 148.367,146.231 144.648,149.751 139.798,144.627 143.414,141.206 
		144.017,141.842 141.133,144.571 142.623,146.146 145.192,143.714 145.782,144.335 143.211,146.769 144.778,148.423 	"/>
	
		<rect x="51.476" y="29.128" transform="matrix(-0.8266 0.5628 -0.5628 -0.8266 113.3271 30.3933)" fill="#707071" width="1.009" height="7.057"/>
	<polygon fill="#707071" points="57.987,24.925 61.46,31.07 60.74,31.476 54.466,28.978 57.054,33.558 56.177,34.055 52.706,27.913 
		53.425,27.503 59.699,30.001 57.11,25.421 	"/>
	<g>
		<path fill="#707071" d="M63.816,29.795c-0.519,0.047-0.96,0.005-1.324-0.121l0.029-0.871c0.343,0.116,0.737,0.158,1.183,0.128
			c0.445-0.029,0.871-0.13,1.278-0.307c0.536-0.234,0.897-0.5,1.083-0.795c0.187-0.296,0.213-0.598,0.082-0.899
			c-0.097-0.221-0.248-0.369-0.452-0.448c-0.206-0.073-0.431-0.103-0.676-0.086c-0.245,0.02-0.58,0.067-1.009,0.146
			c-0.537,0.093-0.981,0.147-1.332,0.159c-0.35,0.013-0.684-0.056-1.002-0.206c-0.318-0.15-0.567-0.433-0.747-0.847
			c-0.15-0.344-0.195-0.696-0.134-1.051c0.062-0.356,0.24-0.698,0.538-1.026c0.298-0.327,0.721-0.61,1.269-0.846
			c0.382-0.168,0.78-0.283,1.192-0.345c0.412-0.064,0.792-0.059,1.137,0.012l0.017,0.872c-0.346-0.054-0.692-0.059-1.04-0.015
			c-0.347,0.044-0.668,0.13-0.964,0.258c-0.523,0.229-0.875,0.495-1.054,0.8c-0.179,0.305-0.203,0.608-0.071,0.911
			c0.097,0.221,0.249,0.369,0.456,0.445c0.209,0.074,0.44,0.101,0.692,0.084c0.252-0.017,0.584-0.067,0.998-0.143
			c0.538-0.096,0.979-0.148,1.325-0.16c0.348-0.012,0.68,0.057,0.997,0.204c0.317,0.148,0.564,0.426,0.741,0.832
			c0.147,0.34,0.189,0.689,0.126,1.051c-0.063,0.359-0.247,0.704-0.551,1.031c-0.306,0.325-0.732,0.61-1.281,0.847
			C64.838,29.623,64.334,29.751,63.816,29.795"/>
	</g>
	
		<rect x="68.052" y="20.728" transform="matrix(-0.9425 0.3342 -0.3342 -0.9425 141.2769 24.207)" fill="#707071" width="1.008" height="7.057"/>
	<g>
		<path fill="#707071" d="M74.87,25.07c0.552-0.145,1.01-0.381,1.372-0.706c0.363-0.325,0.605-0.709,0.731-1.157
			c0.125-0.448,0.122-0.923-0.012-1.43c-0.133-0.507-0.365-0.923-0.694-1.25s-0.732-0.541-1.208-0.647
			c-0.476-0.104-0.989-0.081-1.543,0.064l-1.842,0.485l1.354,5.128L74.87,25.07z M70.477,19.838l2.877-0.758
			c0.721-0.192,1.398-0.217,2.031-0.076c0.635,0.138,1.174,0.426,1.62,0.861c0.444,0.433,0.755,0.987,0.933,1.654
			c0.176,0.669,0.178,1.304,0.006,1.902c-0.174,0.598-0.5,1.113-0.984,1.548c-0.484,0.431-1.085,0.743-1.807,0.933l-2.875,0.76
			L70.477,19.838z"/>
	</g>
	<polygon fill="#707071" points="85.279,23.066 85.409,23.936 80.346,24.693 79.299,17.716 84.224,16.979 84.353,17.845 
		80.426,18.433 80.747,20.579 84.245,20.051 84.372,20.9 80.875,21.425 81.212,23.676 	"/>
	<g>
		<path fill="#707071" d="M91.104,20.177c0.323-0.29,0.473-0.691,0.449-1.201c-0.023-0.511-0.209-0.895-0.559-1.151
			c-0.347-0.256-0.84-0.369-1.478-0.342l-1.712,0.081l0.146,3.172l1.712-0.079C90.3,20.628,90.78,20.465,91.104,20.177
			 M91.794,23.566l-1.619-2.097c-0.188,0.025-0.336,0.037-0.443,0.042L87.99,21.59l0.099,2.146l-1.007,0.047l-0.324-7.051
			l2.749-0.126c0.913-0.041,1.641,0.146,2.185,0.557c0.544,0.413,0.833,1.001,0.869,1.767c0.024,0.541-0.089,1.011-0.34,1.407
			s-0.621,0.692-1.109,0.889l1.78,2.288L91.794,23.566z"/>
	</g>
	<polygon fill="#707071" points="99.252,17.682 96.843,17.461 96.924,16.587 102.735,17.123 102.655,17.997 100.245,17.776 
		99.678,23.928 98.684,23.834 	"/>
	<polygon fill="#707071" points="110.499,18.546 109.142,25.469 108.152,25.277 108.758,22.188 104.781,21.411 104.176,24.497 
		103.187,24.302 104.544,17.377 105.532,17.571 104.949,20.549 108.927,21.329 109.51,18.352 	"/>
	<g>
		<path fill="#707071" d="M116.219,24.009c0.403-0.162,0.681-0.487,0.835-0.974c0.152-0.487,0.109-0.911-0.13-1.272
			c-0.239-0.36-0.663-0.633-1.272-0.825l-1.636-0.514l-0.95,3.029l1.636,0.514C115.31,24.159,115.815,24.172,116.219,24.009
			 M115.707,27.43l-0.805-2.522c-0.184-0.042-0.327-0.082-0.429-0.114l-1.664-0.521l-0.643,2.047l-0.962-0.303l2.111-6.733
			l2.626,0.827c0.871,0.273,1.492,0.697,1.862,1.27c0.369,0.573,0.439,1.226,0.21,1.956c-0.163,0.52-0.43,0.923-0.801,1.206
			c-0.371,0.286-0.82,0.438-1.348,0.456l0.889,2.761L115.707,27.43z"/>
	</g>
	<polygon fill="#707071" points="123.229,29.549 122.884,30.356 118.179,28.336 120.963,21.851 125.538,23.815 125.192,24.62 
		121.543,23.055 120.688,25.045 123.938,26.443 123.601,27.231 120.35,25.833 119.45,27.927 	"/>
	<path fill="#707071" d="M129.231,30.86l0.353-3.76l-3.012,2.278L129.231,30.86z M129.147,31.736l-3.276-1.826l-1.536,1.164
		l-0.907-0.505l6.227-4.609l0.871,0.487l-0.635,7.725l-0.925-0.517L129.147,31.736z"/>
	<polygon fill="#707071" points="135.141,30.336 133.145,28.968 133.641,28.244 138.455,31.544 137.96,32.268 135.964,30.9 
		132.471,35.999 131.647,35.433 	"/>
	<polygon fill="#124F8A" points="154.921,94.738 155.897,94.76 155.912,93.778 154.936,93.771 	"/>
	<g>
		<path fill="#124F8A" d="M155.409,94.75c-0.268-0.007-0.483-0.229-0.477-0.495c0.003-0.266,0.22-0.481,0.491-0.479
			c0.269,0.001,0.487,0.222,0.481,0.494C155.901,94.542,155.678,94.755,155.409,94.75"/>
	</g>
	<polygon fill="#124F8A" points="154.896,95.613 154.854,96.578 155.827,96.629 155.872,95.649 	"/>
	<g>
		<path fill="#124F8A" d="M155.34,96.604c-0.267-0.014-0.476-0.242-0.463-0.508c0.012-0.267,0.238-0.475,0.507-0.465
			c0.271,0.01,0.479,0.237,0.466,0.508C155.839,96.411,155.611,96.617,155.34,96.604"/>
	</g>
	<polygon fill="#124F8A" points="154.803,97.453 154.73,98.416 155.701,98.496 155.775,97.517 	"/>
	<g>
		<path fill="#124F8A" d="M155.217,98.455c-0.271-0.024-0.469-0.257-0.448-0.522c0.017-0.266,0.252-0.467,0.519-0.45
			c0.269,0.018,0.471,0.252,0.452,0.523C155.722,98.275,155.483,98.477,155.217,98.455"/>
	</g>
	<polygon fill="#124F8A" points="154.652,99.287 154.552,100.249 155.521,100.356 155.623,99.38 	"/>
	<g>
		<path fill="#124F8A" d="M155.037,100.302c-0.268-0.031-0.461-0.27-0.434-0.535c0.031-0.264,0.267-0.459,0.534-0.434
			c0.266,0.025,0.466,0.266,0.437,0.535C155.545,100.138,155.303,100.332,155.037,100.302"/>
	</g>
	<polygon fill="#124F8A" points="154.448,101.116 154.319,102.073 155.282,102.212 155.416,101.239 	"/>
	<g>
		<path fill="#124F8A" d="M154.803,102.142c-0.267-0.038-0.452-0.283-0.419-0.547c0.035-0.264,0.281-0.45,0.548-0.418
			c0.269,0.034,0.455,0.28,0.418,0.548C155.317,101.995,155.067,102.182,154.803,102.142"/>
	</g>
	<polygon fill="#124F8A" points="154.188,102.939 154.033,103.892 154.993,104.06 155.152,103.091 	"/>
	<g>
		<path fill="#124F8A" d="M154.51,103.976c-0.263-0.047-0.442-0.298-0.396-0.559c0.043-0.264,0.291-0.443,0.557-0.402
			c0.266,0.042,0.448,0.293,0.405,0.56C155.029,103.842,154.776,104.023,154.51,103.976"/>
	</g>
	<polygon fill="#124F8A" points="153.875,104.753 153.69,105.701 154.646,105.897 154.832,104.934 	"/>
	<g>
		<path fill="#124F8A" d="M154.168,105.799c-0.263-0.053-0.437-0.31-0.385-0.571c0.055-0.262,0.309-0.433,0.572-0.384
			c0.265,0.049,0.438,0.306,0.384,0.572C154.688,105.682,154.431,105.854,154.168,105.799"/>
	</g>
	<polygon fill="#124F8A" points="153.507,106.557 153.292,107.498 154.239,107.724 154.458,106.767 	"/>
	<g>
		<path fill="#124F8A" d="M153.765,107.61c-0.261-0.062-0.421-0.323-0.364-0.582c0.059-0.26,0.32-0.424,0.583-0.367
			c0.263,0.058,0.427,0.319,0.368,0.584C154.29,107.511,154.027,107.673,153.765,107.61"/>
	</g>
	<polygon fill="#124F8A" points="153.083,108.35 152.841,109.285 153.783,109.537 154.028,108.587 	"/>
	<g>
		<path fill="#124F8A" d="M153.312,109.41c-0.26-0.069-0.416-0.337-0.347-0.594c0.068-0.256,0.33-0.414,0.591-0.349
			c0.261,0.066,0.422,0.333,0.352,0.595C153.839,109.324,153.569,109.48,153.312,109.41"/>
	</g>
	<polygon fill="#124F8A" points="152.607,110.127 152.335,111.054 153.269,111.335 153.545,110.395 	"/>
	<g>
		<path fill="#124F8A" d="M152.803,111.195c-0.259-0.078-0.402-0.348-0.33-0.604c0.073-0.256,0.346-0.404,0.603-0.33
			c0.26,0.073,0.409,0.344,0.334,0.604C153.334,111.126,153.06,111.274,152.803,111.195"/>
	</g>
	<polygon fill="#124F8A" points="152.076,111.89 151.776,112.809 152.7,113.118 153.005,112.184 	"/>
	<g>
		<path fill="#124F8A" d="M152.238,112.963c-0.255-0.085-0.394-0.36-0.31-0.614c0.081-0.253,0.354-0.394,0.613-0.312
			c0.256,0.081,0.396,0.357,0.313,0.615C152.771,112.911,152.494,113.048,152.238,112.963"/>
	</g>
	<polygon fill="#124F8A" points="151.493,113.636 151.166,114.545 152.08,114.882 152.413,113.959 	"/>
	<g>
		<path fill="#124F8A" d="M151.623,114.713c-0.252-0.093-0.381-0.372-0.293-0.623c0.089-0.251,0.369-0.382,0.623-0.293
			c0.255,0.09,0.386,0.369,0.295,0.623C152.156,114.676,151.874,114.807,151.623,114.713"/>
	</g>
	<polygon fill="#124F8A" points="150.855,115.363 150.502,116.263 151.404,116.627 151.765,115.714 	"/>
	<g>
		<path fill="#124F8A" d="M150.953,116.444c-0.25-0.102-0.37-0.384-0.272-0.631c0.1-0.249,0.379-0.372,0.63-0.275
			c0.251,0.096,0.377,0.38,0.277,0.633C151.486,116.423,151.203,116.544,150.953,116.444"/>
	</g>
	<polygon fill="#124F8A" points="150.169,117.071 149.786,117.957 150.678,118.351 151.066,117.449 	"/>
	<g>
		<path fill="#124F8A" d="M150.233,118.154c-0.245-0.108-0.359-0.394-0.255-0.639c0.104-0.244,0.391-0.36,0.639-0.255
			c0.249,0.105,0.365,0.391,0.256,0.641C150.767,118.15,150.479,118.264,150.233,118.154"/>
	</g>
	<polygon fill="#124F8A" points="149.428,118.756 149.02,119.632 149.899,120.052 150.314,119.161 	"/>
	<g>
		<path fill="#124F8A" d="M149.46,119.841c-0.244-0.116-0.347-0.405-0.233-0.646c0.11-0.242,0.398-0.348,0.645-0.236
			c0.245,0.111,0.353,0.402,0.238,0.648C149.994,119.852,149.701,119.957,149.46,119.841"/>
	</g>
	<polygon fill="#124F8A" points="148.637,120.419 148.204,121.282 149.07,121.728 149.512,120.851 	"/>
	<g>
		<path fill="#124F8A" d="M148.637,121.505c-0.238-0.124-0.335-0.416-0.215-0.654c0.12-0.238,0.413-0.335,0.652-0.216
			c0.243,0.118,0.342,0.413,0.219,0.654C149.17,121.532,148.877,121.627,148.637,121.505"/>
	</g>
	<polygon fill="#124F8A" points="147.797,122.058 147.338,122.906 148.189,123.378 148.657,122.514 	"/>
	<g>
		<path fill="#124F8A" d="M147.764,123.142c-0.235-0.13-0.321-0.425-0.193-0.66c0.125-0.234,0.419-0.321,0.657-0.196
			c0.237,0.126,0.327,0.422,0.199,0.661C148.297,123.186,147.997,123.272,147.764,123.142"/>
	</g>
	<polygon fill="#124F8A" points="146.908,123.67 146.423,124.506 147.26,125.001 147.755,124.153 	"/>
	<g>
		<path fill="#124F8A" d="M146.842,124.753c-0.23-0.137-0.309-0.435-0.175-0.666c0.134-0.229,0.431-0.309,0.665-0.176
			c0.232,0.133,0.314,0.432,0.177,0.667C147.371,124.812,147.073,124.89,146.842,124.753"/>
	</g>
	<polygon fill="#124F8A" points="145.971,125.254 145.459,126.074 146.283,126.596 146.803,125.763 	"/>
	<g>
		<path fill="#124F8A" d="M145.872,126.334c-0.228-0.144-0.295-0.443-0.155-0.669c0.141-0.227,0.44-0.297,0.67-0.157
			c0.229,0.14,0.301,0.441,0.157,0.672C146.401,126.411,146.097,126.479,145.872,126.334"/>
	</g>
	<polygon fill="#124F8A" points="144.986,126.809 144.452,127.614 145.26,128.161 145.803,127.343 	"/>
	<g>
		<path fill="#124F8A" d="M144.855,127.888c-0.221-0.151-0.282-0.453-0.135-0.675c0.147-0.221,0.448-0.283,0.674-0.137
			c0.226,0.147,0.288,0.451,0.138,0.677C145.381,127.978,145.077,128.039,144.855,127.888"/>
	</g>
	<polygon fill="#124F8A" points="143.955,128.336 143.396,129.122 144.187,129.693 144.755,128.893 	"/>
	<g>
		<path fill="#124F8A" d="M143.791,129.408c-0.218-0.159-0.268-0.46-0.113-0.678c0.152-0.218,0.457-0.27,0.679-0.116
			c0.22,0.154,0.272,0.457,0.116,0.679C144.315,129.515,144.009,129.565,143.791,129.408"/>
	</g>
	<polygon fill="#124F8A" points="142.88,129.83 142.298,130.601 143.071,131.194 143.663,130.412 	"/>
	<g>
		<path fill="#124F8A" d="M142.683,130.897c-0.212-0.164-0.253-0.469-0.094-0.681c0.163-0.212,0.466-0.256,0.682-0.095
			c0.216,0.16,0.261,0.466,0.097,0.682C143.203,131.02,142.896,131.062,142.683,130.897"/>
	</g>
	<polygon fill="#124F8A" points="141.758,131.29 141.152,132.042 141.907,132.66 142.524,131.895 	"/>
	<g>
		<path fill="#124F8A" d="M141.53,132.351c-0.208-0.17-0.239-0.475-0.073-0.683c0.168-0.208,0.473-0.242,0.684-0.076
			c0.212,0.168,0.247,0.475,0.077,0.687C142.048,132.49,141.739,132.521,141.53,132.351"/>
	</g>
	<polygon fill="#124F8A" points="140.596,132.717 139.968,133.452 140.704,134.091 141.342,133.345 	"/>
	<g>
		<path fill="#124F8A" d="M140.336,133.771c-0.201-0.177-0.227-0.483-0.053-0.686c0.172-0.202,0.479-0.228,0.686-0.055
			c0.205,0.174,0.232,0.482,0.054,0.687C140.848,133.924,140.539,133.948,140.336,133.771"/>
	</g>
	<polygon fill="#124F8A" points="139.39,134.108 138.74,134.823 139.457,135.484 140.117,134.757 	"/>
	<g>
		<path fill="#124F8A" d="M139.1,135.153c-0.198-0.182-0.213-0.489-0.033-0.685c0.179-0.198,0.486-0.213,0.687-0.035
			c0.201,0.179,0.217,0.487,0.036,0.69C139.606,135.323,139.297,135.336,139.1,135.153"/>
	</g>
	<polygon fill="#124F8A" points="138.143,135.463 137.474,136.16 138.17,136.841 138.85,136.134 	"/>
	<g>
		<path fill="#124F8A" d="M137.82,136.5c-0.192-0.187-0.196-0.496-0.013-0.688c0.188-0.191,0.492-0.199,0.689-0.014
			c0.195,0.185,0.203,0.496,0.012,0.691C138.322,136.684,138.013,136.689,137.82,136.5"/>
	</g>
	<polygon fill="#124F8A" points="136.855,136.78 136.163,137.456 136.84,138.158 137.543,137.472 	"/>
	<g>
		<path fill="#124F8A" d="M136.503,137.807c-0.187-0.195-0.182-0.502,0.01-0.688c0.188-0.187,0.498-0.184,0.688,0.007
			c0.189,0.19,0.188,0.5-0.005,0.69C136.998,138.006,136.688,138,136.503,137.807"/>
	</g>
	<polygon fill="#124F8A" points="135.531,138.058 134.82,138.713 135.475,139.434 136.197,138.77 	"/>
	<g>
		<path fill="#124F8A" d="M135.147,139.073c-0.18-0.199-0.167-0.508,0.029-0.687c0.196-0.179,0.502-0.169,0.687,0.028
			c0.186,0.196,0.176,0.506-0.026,0.689C135.638,139.287,135.329,139.273,135.147,139.073"/>
	</g>
	<polygon fill="#124F8A" points="134.168,139.295 133.438,139.928 134.071,140.669 134.813,140.026 	"/>
	<g>
		<path fill="#124F8A" d="M133.752,140.299c-0.172-0.206-0.15-0.512,0.052-0.685c0.2-0.177,0.507-0.154,0.686,0.046
			c0.179,0.202,0.158,0.512-0.047,0.69C134.236,140.527,133.928,140.503,133.752,140.299"/>
	</g>
	<polygon fill="#124F8A" points="132.768,140.492 132.02,141.103 132.63,141.863 133.391,141.243 	"/>
	<g>
		<path fill="#124F8A" d="M132.323,141.484c-0.166-0.21-0.135-0.516,0.07-0.685c0.209-0.168,0.513-0.138,0.686,0.068
			c0.173,0.207,0.145,0.516-0.067,0.687C132.802,141.726,132.492,141.694,132.323,141.484"/>
	</g>
	<polygon fill="#124F8A" points="131.332,141.646 130.564,142.234 131.153,143.011 131.934,142.414 	"/>
	<g>
		<path fill="#124F8A" d="M130.86,142.623c-0.164-0.215-0.121-0.521,0.09-0.681c0.21-0.164,0.519-0.124,0.684,0.087
			c0.165,0.213,0.125,0.52-0.089,0.686C131.329,142.879,131.021,142.838,130.86,142.623"/>
	</g>
	<polygon fill="#124F8A" points="129.864,142.757 129.081,143.322 129.644,144.117 130.44,143.542 	"/>
	<g>
		<path fill="#124F8A" d="M129.362,143.72c-0.155-0.219-0.104-0.523,0.112-0.679c0.217-0.155,0.52-0.107,0.678,0.109
			c0.159,0.217,0.112,0.523-0.108,0.681C129.823,143.99,129.52,143.938,129.362,143.72"/>
	</g>
	<polygon fill="#124F8A" points="128.362,143.822 127.563,144.363 128.103,145.175 128.917,144.625 	"/>
	<g>
		<path fill="#124F8A" d="M127.834,144.769c-0.15-0.224-0.092-0.525,0.13-0.673c0.219-0.151,0.522-0.093,0.677,0.128
			c0.15,0.222,0.094,0.526-0.13,0.679C128.285,145.054,127.981,144.994,127.834,144.769"/>
	</g>
	<polygon fill="#124F8A" points="126.832,144.842 126.015,145.36 126.529,146.188 127.358,145.663 	"/>
	<g>
		<path fill="#124F8A" d="M126.273,145.774c-0.141-0.228-0.074-0.528,0.15-0.671c0.225-0.143,0.525-0.076,0.672,0.15
			c0.145,0.226,0.081,0.528-0.149,0.673C126.717,146.071,126.413,146.004,126.273,145.774"/>
	</g>
	<polygon fill="#124F8A" points="125.27,145.817 124.438,146.309 124.927,147.151 125.771,146.652 	"/>
	<g>
		<path fill="#124F8A" d="M124.681,146.73c-0.135-0.233-0.057-0.53,0.173-0.666c0.229-0.136,0.528-0.06,0.666,0.17
			c0.139,0.23,0.064,0.53-0.17,0.669C125.117,147.042,124.818,146.962,124.681,146.73"/>
	</g>
	<polygon fill="#124F8A" points="123.677,146.744 122.833,147.21 123.297,148.067 124.156,147.592 	"/>
	<g>
		<path fill="#124F8A" d="M123.064,147.639c-0.128-0.236-0.042-0.532,0.191-0.661c0.234-0.128,0.529-0.043,0.661,0.19
			c0.131,0.234,0.048,0.533-0.19,0.664C123.488,147.962,123.192,147.876,123.064,147.639"/>
	</g>
	<polygon fill="#124F8A" points="122.061,147.622 121.201,148.063 121.638,148.933 122.512,148.485 	"/>
	<g>
		<path fill="#124F8A" d="M121.42,148.498c-0.123-0.241-0.026-0.532,0.213-0.653c0.235-0.123,0.528-0.029,0.653,0.209
			c0.123,0.239,0.031,0.533-0.211,0.658C121.836,148.834,121.538,148.738,121.42,148.498"/>
	</g>
	<polygon fill="#124F8A" points="120.415,148.451 119.543,148.866 119.956,149.75 120.841,149.327 	"/>
	<g>
		<path fill="#124F8A" d="M119.749,149.308c-0.111-0.243-0.01-0.535,0.231-0.648c0.241-0.114,0.53-0.013,0.648,0.229
			c0.117,0.242,0.017,0.535-0.229,0.65C120.154,149.656,119.862,149.552,119.749,149.308"/>
	</g>
	<polygon fill="#124F8A" points="118.748,149.229 117.861,149.617 118.248,150.513 119.146,150.119 	"/>
	<g>
		<path fill="#124F8A" d="M118.055,150.066c-0.105-0.248,0.008-0.532,0.252-0.641c0.244-0.107,0.531,0.004,0.641,0.25
			c0.11,0.245,0,0.532-0.248,0.643C118.45,150.428,118.162,150.312,118.055,150.066"/>
	</g>
	<polygon fill="#124F8A" points="117.057,149.958 116.161,150.321 116.521,151.228 117.429,150.858 	"/>
	<g>
		<path fill="#124F8A" d="M116.341,150.774c-0.1-0.25,0.022-0.534,0.269-0.634c0.248-0.098,0.531,0.02,0.635,0.269
			c0.102,0.247-0.019,0.535-0.269,0.635C116.722,151.146,116.439,151.024,116.341,150.774"/>
	</g>
	<polygon fill="#124F8A" points="115.345,150.635 114.438,150.968 114.769,151.885 115.688,151.546 	"/>
	<g>
		<path fill="#124F8A" d="M114.604,151.427c-0.091-0.253,0.039-0.53,0.29-0.623c0.248-0.093,0.53,0.035,0.625,0.287
			c0.094,0.252-0.034,0.532-0.29,0.627C114.976,151.813,114.694,151.68,114.604,151.427"/>
	</g>
	<polygon fill="#124F8A" points="113.613,151.259 112.696,151.566 112.999,152.493 113.929,152.181 	"/>
	<g>
		<path fill="#124F8A" d="M112.849,152.03c-0.082-0.256,0.055-0.531,0.307-0.615c0.254-0.083,0.527,0.051,0.616,0.305
			c0.086,0.253-0.049,0.534-0.305,0.619C113.208,152.424,112.931,152.286,112.849,152.03"/>
	</g>
	<polygon fill="#124F8A" points="111.863,151.832 110.938,152.11 111.212,153.045 112.152,152.763 	"/>
	<g>
		<path fill="#124F8A" d="M111.074,152.577c-0.074-0.258,0.073-0.525,0.326-0.605c0.256-0.077,0.528,0.069,0.609,0.326
			c0.079,0.256-0.066,0.528-0.327,0.607C111.423,152.985,111.15,152.835,111.074,152.577"/>
	</g>
	<polygon fill="#124F8A" points="110.097,152.35 109.165,152.6 109.408,153.544 110.357,153.289 	"/>
	<g>
		<path fill="#124F8A" d="M109.285,153.072c-0.064-0.26,0.09-0.527,0.347-0.594c0.257-0.07,0.523,0.081,0.594,0.342
			c0.073,0.257-0.081,0.529-0.342,0.598C109.62,153.487,109.354,153.333,109.285,153.072"/>
	</g>
	<polygon fill="#124F8A" points="108.315,152.815 107.376,153.037 107.592,153.986 108.547,153.762 	"/>
	<g>
		<path fill="#124F8A" d="M107.482,153.512c-0.058-0.261,0.105-0.522,0.363-0.585c0.258-0.061,0.522,0.102,0.586,0.362
			c0.064,0.262-0.097,0.524-0.361,0.587C107.806,153.94,107.543,153.775,107.482,153.512"/>
	</g>
	<polygon fill="#124F8A" points="106.52,153.225 105.574,153.418 105.763,154.375 106.724,154.179 	"/>
	<g>
		<path fill="#124F8A" d="M105.668,153.897c-0.052-0.265,0.119-0.52,0.38-0.572c0.261-0.055,0.519,0.114,0.575,0.376
			c0.056,0.264-0.113,0.522-0.379,0.579C105.978,154.332,105.72,154.161,105.668,153.897"/>
	</g>
	<polygon fill="#124F8A" points="104.716,153.583 103.764,153.749 103.924,154.708 104.888,154.542 	"/>
	<g>
		<path fill="#124F8A" d="M103.842,154.228c-0.044-0.264,0.135-0.517,0.396-0.562c0.264-0.044,0.515,0.131,0.563,0.396
			c0.049,0.264-0.128,0.519-0.396,0.564C104.14,154.673,103.886,154.494,103.842,154.228"/>
	</g>
	<polygon fill="#124F8A" points="102.898,153.884 101.941,154.019 102.072,154.986 103.042,154.848 	"/>
	<g>
		<path fill="#124F8A" d="M102.007,154.502c-0.035-0.268,0.15-0.51,0.413-0.549c0.266-0.039,0.512,0.145,0.552,0.411
			c0.04,0.267-0.146,0.514-0.414,0.553C102.289,154.958,102.043,154.768,102.007,154.502"/>
	</g>
	<polygon fill="#124F8A" points="101.073,154.13 100.113,154.237 100.215,155.207 101.189,155.098 	"/>
	<g>
		<path fill="#124F8A" d="M100.164,154.722c-0.028-0.266,0.166-0.507,0.429-0.536c0.267-0.028,0.506,0.16,0.54,0.428
			c0.031,0.266-0.161,0.512-0.43,0.541C100.432,155.184,100.191,154.991,100.164,154.722"/>
	</g>
	<polygon fill="#124F8A" points="99.242,154.322 98.28,154.4 98.352,155.374 99.331,155.292 	"/>
	<g>
		<path fill="#124F8A" d="M98.314,154.887c-0.018-0.268,0.182-0.502,0.447-0.524c0.267-0.023,0.501,0.178,0.524,0.445
			c0.025,0.268-0.174,0.503-0.447,0.525C98.57,155.357,98.335,155.156,98.314,154.887"/>
	</g>
	<polygon fill="#124F8A" points="97.408,154.459 96.441,154.509 96.483,155.483 97.466,155.431 	"/>
	<g>
		<path fill="#124F8A" d="M96.464,154.995c-0.011-0.268,0.195-0.495,0.46-0.508c0.266-0.017,0.495,0.19,0.512,0.458
			c0.016,0.27-0.19,0.499-0.461,0.514C96.703,155.474,96.474,155.263,96.464,154.995"/>
	</g>
	<polygon fill="#124F8A" points="94.601,154.563 94.616,155.538 95.597,155.514 95.568,154.541 	"/>
	<g>
		<path fill="#124F8A" d="M94.608,155.05c-0.005-0.269,0.209-0.491,0.475-0.497c0.269-0.003,0.49,0.205,0.5,0.475
			c0.007,0.268-0.206,0.496-0.478,0.5C94.835,155.533,94.611,155.319,94.608,155.05"/>
	</g>
	<polygon fill="#124F8A" points="92.745,155.536 93.728,155.544 93.726,154.569 92.76,154.562 	"/>
	<g>
		<path fill="#124F8A" d="M92.754,155.05c0.003-0.269,0.223-0.484,0.489-0.483c0.266,0.002,0.482,0.223,0.484,0.491
			c0,0.269-0.22,0.485-0.491,0.484C92.964,155.541,92.747,155.319,92.754,155.05"/>
	</g>
	<polygon fill="#124F8A" points="91.884,154.542 90.919,154.506 90.876,155.48 91.856,155.517 	"/>
	<g>
		<path fill="#124F8A" d="M90.897,154.994c0.013-0.269,0.239-0.477,0.505-0.466c0.267,0.007,0.476,0.234,0.469,0.502
			c-0.009,0.269-0.233,0.481-0.506,0.472C91.096,155.491,90.886,155.262,90.897,154.994"/>
	</g>
	<polygon fill="#124F8A" points="90.046,154.461 89.081,154.397 89.009,155.37 89.988,155.435 	"/>
	<g>
		<path fill="#124F8A" d="M89.046,154.883c0.019-0.268,0.252-0.471,0.517-0.452c0.267,0.021,0.469,0.247,0.454,0.517
			c-0.015,0.267-0.246,0.476-0.52,0.456C89.229,155.384,89.024,155.151,89.046,154.883"/>
	</g>
	<polygon fill="#124F8A" points="88.209,154.327 87.248,154.232 87.146,155.201 88.124,155.297 	"/>
	<g>
		<path fill="#124F8A" d="M87.196,154.717c0.027-0.267,0.266-0.46,0.532-0.436c0.265,0.025,0.461,0.262,0.438,0.531
			c-0.024,0.268-0.261,0.465-0.532,0.439C87.364,155.227,87.168,154.985,87.196,154.717"/>
	</g>
	<polygon fill="#124F8A" points="86.377,154.135 85.42,154.013 85.288,154.979 86.262,155.103 	"/>
	<g>
		<path fill="#124F8A" d="M85.354,154.497c0.038-0.267,0.28-0.455,0.545-0.419c0.265,0.032,0.453,0.274,0.423,0.542
			c-0.033,0.266-0.276,0.457-0.545,0.425C85.504,155.008,85.317,154.763,85.354,154.497"/>
	</g>
	<polygon fill="#124F8A" points="84.553,153.891 83.599,153.741 83.438,154.702 84.409,154.854 	"/>
	<g>
		<path fill="#124F8A" d="M83.52,154.221c0.044-0.264,0.293-0.447,0.555-0.405c0.266,0.043,0.447,0.29,0.406,0.556
			c-0.039,0.266-0.288,0.451-0.556,0.406C83.655,154.736,83.476,154.487,83.52,154.221"/>
	</g>
	<polygon fill="#124F8A" points="82.737,153.59 81.786,153.41 81.599,154.366 82.563,154.548 	"/>
	<g>
		<path fill="#124F8A" d="M81.694,153.889c0.051-0.265,0.306-0.434,0.567-0.386c0.262,0.048,0.436,0.302,0.389,0.568
			c-0.047,0.263-0.303,0.439-0.569,0.389C81.813,154.411,81.64,154.152,81.694,153.889"/>
	</g>
	<polygon fill="#124F8A" points="80.93,153.234 79.986,153.027 79.77,153.978 80.729,154.188 	"/>
	<g>
		<path fill="#124F8A" d="M79.877,153.502c0.063-0.262,0.321-0.427,0.581-0.37c0.26,0.059,0.427,0.315,0.371,0.578
			c-0.056,0.264-0.315,0.435-0.581,0.375C79.983,154.025,79.818,153.765,79.877,153.502"/>
	</g>
	<polygon fill="#124F8A" points="79.135,152.826 78.197,152.589 77.954,153.532 78.904,153.773 	"/>
	<g>
		<path fill="#124F8A" d="M78.075,153.061c0.068-0.26,0.334-0.416,0.591-0.351c0.259,0.064,0.417,0.33,0.354,0.591
			c-0.065,0.26-0.329,0.42-0.593,0.354C78.164,153.589,78.007,153.321,78.075,153.061"/>
	</g>
	<polygon fill="#124F8A" points="77.354,152.362 76.426,152.097 76.15,153.032 77.095,153.301 	"/>
	<g>
		<path fill="#124F8A" d="M76.287,152.565c0.076-0.258,0.346-0.408,0.601-0.333c0.257,0.072,0.407,0.34,0.336,0.599
			c-0.072,0.259-0.341,0.412-0.602,0.338C76.36,153.093,76.211,152.823,76.287,152.565"/>
	</g>
	<polygon fill="#124F8A" points="75.587,151.846 74.666,151.552 74.363,152.479 75.298,152.776 	"/>
	<g>
		<path fill="#124F8A" d="M74.516,152.017c0.082-0.256,0.357-0.396,0.61-0.317c0.253,0.082,0.396,0.355,0.315,0.611
			c-0.078,0.257-0.353,0.401-0.611,0.318C74.572,152.546,74.431,152.272,74.516,152.017"/>
	</g>
	<polygon fill="#124F8A" points="73.837,151.274 72.925,150.954 72.595,151.871 73.52,152.197 	"/>
	<g>
		<path fill="#124F8A" d="M72.76,151.412c0.092-0.252,0.37-0.385,0.62-0.295c0.252,0.087,0.386,0.364,0.298,0.619
			c-0.086,0.254-0.363,0.389-0.621,0.3C72.801,151.945,72.668,151.666,72.76,151.412"/>
	</g>
	<polygon fill="#124F8A" points="72.104,150.65 71.202,150.304 70.845,151.209 71.76,151.563 	"/>
	<g>
		<path fill="#124F8A" d="M71.024,150.757c0.097-0.248,0.38-0.374,0.629-0.279c0.248,0.098,0.373,0.378,0.279,0.63
			c-0.095,0.251-0.378,0.379-0.631,0.28C71.048,151.29,70.925,151.007,71.024,150.757"/>
	</g>
	<polygon fill="#124F8A" points="70.391,149.975 69.501,149.6 69.117,150.495 70.02,150.876 	"/>
	<g>
		<path fill="#124F8A" d="M69.308,150.048c0.108-0.247,0.393-0.361,0.639-0.257c0.246,0.102,0.361,0.386,0.259,0.635
			c-0.102,0.249-0.387,0.367-0.639,0.263C69.317,150.583,69.202,150.295,69.308,150.048"/>
	</g>
	<polygon fill="#124F8A" points="68.701,149.248 67.822,148.847 67.409,149.73 68.3,150.138 	"/>
	<g>
		<path fill="#124F8A" d="M67.613,149.289c0.115-0.243,0.404-0.351,0.647-0.239c0.242,0.112,0.35,0.398,0.24,0.644
			c-0.109,0.245-0.399,0.356-0.646,0.242C67.608,149.822,67.501,149.533,67.613,149.289"/>
	</g>
	<polygon fill="#124F8A" points="67.031,148.472 66.166,148.042 65.727,148.914 66.605,149.348 	"/>
	<g>
		<path fill="#124F8A" d="M65.946,148.478c0.12-0.24,0.413-0.336,0.65-0.219c0.24,0.117,0.34,0.409,0.222,0.652
			c-0.116,0.241-0.409,0.342-0.652,0.222C65.921,149.013,65.824,148.717,65.946,148.478"/>
	</g>
	<polygon fill="#124F8A" points="65.388,147.643 64.534,147.19 64.07,148.047 64.936,148.507 	"/>
	<g>
		<path fill="#124F8A" d="M64.301,147.618c0.129-0.236,0.424-0.327,0.66-0.2c0.232,0.126,0.326,0.417,0.202,0.656
			c-0.125,0.239-0.423,0.333-0.662,0.204S64.173,147.854,64.301,147.618"/>
	</g>
	<polygon fill="#124F8A" points="63.768,146.766 62.931,146.286 62.439,147.127 63.29,147.616 	"/>
	<g>
		<path fill="#124F8A" d="M62.685,146.708c0.135-0.233,0.431-0.312,0.663-0.18s0.313,0.429,0.181,0.663
			c-0.13,0.234-0.429,0.317-0.664,0.183C62.629,147.241,62.549,146.939,62.685,146.708"/>
	</g>
	<polygon fill="#124F8A" points="62.178,145.84 61.353,145.336 60.837,146.163 61.674,146.675 	"/>
	<g>
		<path fill="#124F8A" d="M61.095,145.75c0.141-0.228,0.442-0.301,0.669-0.16c0.226,0.14,0.301,0.436,0.162,0.668
			c-0.139,0.23-0.44,0.307-0.67,0.163C61.023,146.278,60.954,145.979,61.095,145.75"/>
	</g>
	<polygon fill="#124F8A" points="60.613,144.868 59.806,144.338 59.265,145.149 60.087,145.688 	"/>
	<g>
		<path fill="#124F8A" d="M59.534,144.745c0.15-0.225,0.451-0.284,0.673-0.14c0.225,0.145,0.287,0.448,0.143,0.673
			c-0.145,0.227-0.447,0.29-0.675,0.143C59.445,145.273,59.388,144.966,59.534,144.745"/>
	</g>
	<polygon fill="#124F8A" points="59.079,143.849 58.288,143.296 57.723,144.09 58.528,144.652 	"/>
	<g>
		<path fill="#124F8A" d="M58.006,143.693c0.156-0.218,0.46-0.272,0.679-0.12c0.216,0.154,0.272,0.455,0.121,0.678
			c-0.152,0.22-0.459,0.279-0.681,0.121C57.903,144.217,57.851,143.913,58.006,143.693"/>
	</g>
	<polygon fill="#124F8A" points="57.578,142.784 56.803,142.207 56.215,142.983 57.003,143.57 	"/>
	<g>
		<path fill="#124F8A" d="M56.51,142.596c0.162-0.215,0.466-0.257,0.68-0.099c0.214,0.159,0.261,0.464,0.102,0.681
			c-0.159,0.217-0.464,0.263-0.684,0.102C56.389,143.118,56.346,142.809,56.51,142.596"/>
	</g>
	<polygon fill="#124F8A" points="56.109,141.674 55.351,141.075 54.74,141.835 55.511,142.443 	"/>
	<g>
		<path fill="#124F8A" d="M55.047,141.455c0.168-0.209,0.473-0.244,0.682-0.079c0.209,0.167,0.246,0.47,0.081,0.683
			c-0.165,0.212-0.475,0.251-0.686,0.081C54.913,141.971,54.878,141.665,55.047,141.455"/>
	</g>
	<polygon fill="#124F8A" points="54.674,140.521 53.935,139.898 53.301,140.64 54.051,141.272 	"/>
	<g>
		<path fill="#124F8A" d="M53.618,140.27c0.175-0.205,0.479-0.228,0.685-0.057c0.203,0.169,0.232,0.477,0.062,0.684
			c-0.172,0.208-0.479,0.236-0.69,0.061C53.467,140.783,53.443,140.474,53.618,140.27"/>
	</g>
	<polygon fill="#124F8A" points="53.273,139.326 52.554,138.682 51.897,139.405 52.629,140.057 	"/>
	<g>
		<path fill="#124F8A" d="M52.225,139.043c0.182-0.199,0.488-0.216,0.688-0.038c0.197,0.179,0.216,0.484,0.04,0.687
			c-0.177,0.202-0.489,0.222-0.69,0.04C52.061,139.551,52.044,139.242,52.225,139.043"/>
	</g>
	<polygon fill="#124F8A" points="51.909,138.089 51.209,137.423 50.532,138.126 51.245,138.801 	"/>
	<g>
		<path fill="#124F8A" d="M50.87,137.774c0.187-0.193,0.494-0.199,0.687-0.016c0.194,0.182,0.201,0.49,0.02,0.687
			c-0.184,0.197-0.492,0.206-0.689,0.019C50.689,138.279,50.684,137.968,50.87,137.774"/>
	</g>
	<polygon fill="#124F8A" points="50.583,136.813 49.9,136.127 49.204,136.808 49.897,137.504 	"/>
	<g>
		<path fill="#124F8A" d="M49.554,136.468c0.19-0.188,0.501-0.187,0.688,0.003c0.187,0.19,0.188,0.495-0.003,0.687
			c-0.187,0.191-0.5,0.193-0.689,0C49.358,136.964,49.36,136.655,49.554,136.468"/>
	</g>
	<polygon fill="#124F8A" points="49.294,135.497 48.634,134.791 47.918,135.451 48.588,136.167 	"/>
	<g>
		<path fill="#124F8A" d="M48.277,135.121c0.198-0.182,0.502-0.169,0.688,0.024c0.182,0.195,0.172,0.502-0.023,0.688
			c-0.196,0.185-0.503,0.175-0.689-0.022C48.065,135.613,48.08,135.302,48.277,135.121"/>
	</g>
	<polygon fill="#124F8A" points="48.048,134.143 47.408,133.418 46.672,134.057 47.319,134.793 	"/>
	<g>
		<path fill="#124F8A" d="M47.04,133.737c0.205-0.176,0.511-0.156,0.687,0.044c0.175,0.202,0.157,0.507-0.043,0.687
			c-0.199,0.178-0.511,0.162-0.688-0.043C46.815,134.221,46.836,133.913,47.04,133.737"/>
	</g>
	<polygon fill="#124F8A" points="46.841,132.752 46.224,132.007 45.468,132.624 46.095,133.38 	"/>
	<g>
		<path fill="#124F8A" d="M45.846,132.316c0.21-0.17,0.515-0.139,0.685,0.066c0.171,0.204,0.143,0.51-0.063,0.684
			c-0.206,0.174-0.514,0.146-0.688-0.062S45.638,132.486,45.846,132.316"/>
	</g>
	<polygon fill="#124F8A" points="45.677,131.326 45.08,130.564 44.308,131.158 44.912,131.931 	"/>
	<g>
		<path fill="#124F8A" d="M44.695,130.862c0.212-0.164,0.519-0.126,0.683,0.084c0.162,0.212,0.127,0.515-0.084,0.682
			c-0.211,0.168-0.52,0.132-0.685-0.082C44.442,131.331,44.48,131.024,44.695,130.862"/>
	</g>
	<polygon fill="#124F8A" points="44.554,129.866 43.984,129.085 43.193,129.656 43.773,130.448 	"/>
	<g>
		<path fill="#124F8A" d="M43.588,129.371c0.219-0.158,0.521-0.108,0.68,0.106c0.157,0.214,0.111,0.519-0.104,0.681
			c-0.217,0.16-0.521,0.114-0.684-0.105C43.319,129.835,43.37,129.527,43.588,129.371"/>
	</g>
	<polygon fill="#124F8A" points="43.478,128.372 42.93,127.577 42.121,128.123 42.678,128.931 	"/>
	<g>
		<path fill="#124F8A" d="M42.525,127.85c0.223-0.151,0.526-0.095,0.678,0.125c0.148,0.221,0.094,0.523-0.126,0.676
			c-0.22,0.155-0.526,0.102-0.679-0.124C42.246,128.303,42.302,128,42.525,127.85"/>
	</g>
	<polygon fill="#124F8A" points="42.445,126.848 41.922,126.037 41.1,126.557 41.63,127.382 	"/>
	<g>
		<path fill="#124F8A" d="M41.511,126.296c0.228-0.143,0.527-0.077,0.672,0.146c0.144,0.224,0.079,0.525-0.145,0.673
			c-0.227,0.148-0.527,0.084-0.676-0.145C41.214,126.743,41.283,126.439,41.511,126.296"/>
	</g>
	<polygon fill="#124F8A" points="41.459,125.292 40.96,124.465 40.122,124.963 40.629,125.802 	"/>
	<g>
		<path fill="#124F8A" d="M40.54,124.714c0.232-0.136,0.531-0.063,0.669,0.165c0.136,0.231,0.064,0.527-0.164,0.668
			c-0.23,0.14-0.532,0.068-0.672-0.165C40.234,125.15,40.31,124.852,40.54,124.714"/>
	</g>
	<polygon fill="#124F8A" points="40.521,123.709 40.048,122.867 39.193,123.337 39.675,124.194 	"/>
	<g>
		<path fill="#124F8A" d="M39.621,123.102c0.236-0.13,0.53-0.044,0.661,0.187c0.132,0.232,0.048,0.528-0.185,0.662
			c-0.232,0.135-0.531,0.052-0.665-0.185C39.299,123.53,39.385,123.231,39.621,123.102"/>
	</g>
	<polygon fill="#124F8A" points="39.63,122.097 39.182,121.241 38.314,121.687 38.771,122.555 	"/>
	<g>
		<path fill="#124F8A" d="M38.748,121.464c0.239-0.123,0.534-0.03,0.657,0.207c0.122,0.236,0.033,0.529-0.205,0.656
			c-0.235,0.126-0.537,0.036-0.659-0.205C38.416,121.881,38.509,121.586,38.748,121.464"/>
	</g>
	<polygon fill="#124F8A" points="38.789,120.46 38.368,119.591 37.487,120.01 37.915,120.893 	"/>
	<g>
		<path fill="#124F8A" d="M37.928,119.8c0.244-0.116,0.531-0.012,0.648,0.227c0.117,0.239,0.017,0.53-0.225,0.65
			s-0.533,0.019-0.652-0.226C37.579,120.207,37.685,119.915,37.928,119.8"/>
	</g>
	<polygon fill="#124F8A" points="37.998,118.798 37.602,117.917 36.71,118.308 37.11,119.203 	"/>
	<g>
		<path fill="#124F8A" d="M37.155,118.112c0.246-0.107,0.534,0.002,0.644,0.246c0.105,0.243,0.002,0.529-0.244,0.642
			c-0.244,0.112-0.537,0.005-0.646-0.244C36.799,118.508,36.908,118.219,37.155,118.112"/>
	</g>
	<polygon fill="#124F8A" points="37.256,117.113 36.889,116.22 35.983,116.583 36.357,117.492 	"/>
	<g>
		<path fill="#124F8A" d="M36.437,116.402c0.25-0.101,0.53,0.02,0.634,0.265c0.103,0.246-0.016,0.529-0.264,0.636
			c-0.248,0.104-0.534-0.013-0.638-0.264C36.063,116.789,36.187,116.502,36.437,116.402"/>
	</g>
	<polygon fill="#124F8A" points="36.566,115.405 36.226,114.502 35.31,114.839 35.658,115.756 	"/>
	<g>
		<path fill="#124F8A" d="M35.768,114.671c0.253-0.092,0.533,0.034,0.626,0.284c0.093,0.249-0.029,0.529-0.281,0.627
			c-0.25,0.097-0.535-0.028-0.63-0.282C35.388,115.045,35.516,114.763,35.768,114.671"/>
	</g>
	<polygon fill="#124F8A" points="35.928,113.679 35.616,112.765 34.69,113.074 35.009,114.002 	"/>
	<g>
		<path fill="#124F8A" d="M35.153,112.92c0.255-0.085,0.529,0.051,0.617,0.303c0.086,0.251-0.049,0.528-0.302,0.618
			c-0.254,0.09-0.531-0.045-0.62-0.302C34.76,113.283,34.897,113.005,35.153,112.92"/>
	</g>
	<polygon fill="#124F8A" points="35.344,111.933 35.057,111.011 34.125,111.292 34.415,112.229 	"/>
	<g>
		<path fill="#124F8A" d="M34.591,111.151c0.258-0.077,0.53,0.067,0.607,0.322c0.079,0.254-0.062,0.526-0.319,0.608
			c-0.255,0.082-0.531-0.061-0.611-0.32C34.188,111.501,34.333,111.229,34.591,111.151"/>
	</g>
	<polygon fill="#124F8A" points="34.812,110.17 34.554,109.241 33.612,109.493 33.873,110.438 	"/>
	<g>
		<path fill="#124F8A" d="M34.083,109.366c0.26-0.069,0.526,0.084,0.598,0.34c0.072,0.257-0.081,0.526-0.338,0.6
			c-0.26,0.073-0.528-0.078-0.601-0.339C33.67,109.705,33.823,109.436,34.083,109.366"/>
	</g>
	<polygon fill="#124F8A" points="34.333,108.393 34.104,107.455 33.155,107.679 33.39,108.632 	"/>
	<g>
		<path fill="#124F8A" d="M33.63,107.566c0.262-0.062,0.524,0.1,0.587,0.359c0.063,0.257-0.096,0.521-0.354,0.587
			c-0.263,0.067-0.527-0.093-0.593-0.357C33.206,107.893,33.369,107.627,33.63,107.566"/>
	</g>
	<polygon fill="#124F8A" points="33.909,106.602 33.708,105.658 32.754,105.853 32.957,106.812 	"/>
	<g>
		<path fill="#124F8A" d="M33.23,105.755c0.263-0.054,0.522,0.114,0.576,0.375c0.055,0.261-0.111,0.519-0.373,0.577
			c-0.263,0.058-0.524-0.109-0.58-0.374C32.799,106.067,32.966,105.808,33.23,105.755"/>
	</g>
	<polygon fill="#124F8A" points="33.538,104.799 33.366,103.847 32.406,104.014 32.581,104.98 	"/>
	<g>
		<path fill="#124F8A" d="M32.888,103.931c0.266-0.046,0.515,0.13,0.563,0.393c0.049,0.262-0.127,0.515-0.391,0.565
			c-0.263,0.05-0.518-0.125-0.569-0.392C32.442,104.23,32.623,103.977,32.888,103.931"/>
	</g>
	<polygon fill="#124F8A" points="33.225,102.984 33.079,102.029 32.114,102.167 32.261,103.137 	"/>
	<g>
		<path fill="#124F8A" d="M32.598,102.098c0.266-0.039,0.514,0.146,0.554,0.409c0.037,0.265-0.142,0.511-0.408,0.553
			c-0.265,0.043-0.518-0.139-0.557-0.408S32.332,102.135,32.598,102.098"/>
	</g>
	<polygon fill="#124F8A" points="32.963,101.162 32.85,100.202 31.88,100.311 31.995,101.285 	"/>
	<g>
		<path fill="#124F8A" d="M32.364,100.258c0.269-0.031,0.507,0.161,0.54,0.424c0.033,0.266-0.159,0.508-0.425,0.541
			c-0.268,0.035-0.511-0.155-0.543-0.424C31.903,100.529,32.097,100.286,32.364,100.258"/>
	</g>
	<polygon fill="#124F8A" points="32.758,99.333 32.672,98.371 31.701,98.45 31.789,99.425 	"/>
	<g>
		<path fill="#124F8A" d="M32.187,98.409c0.269-0.021,0.503,0.177,0.526,0.443c0.024,0.264-0.172,0.501-0.44,0.527
			c-0.267,0.027-0.506-0.171-0.53-0.441C31.719,98.669,31.919,98.431,32.187,98.409"/>
	</g>
	<polygon fill="#124F8A" points="32.607,97.498 32.55,96.532 31.576,96.583 31.636,97.563 	"/>
	<g>
		<path fill="#124F8A" d="M32.063,96.558c0.269-0.014,0.499,0.192,0.514,0.457c0.014,0.267-0.187,0.497-0.456,0.515
			c-0.268,0.018-0.503-0.186-0.516-0.456C31.589,96.802,31.795,96.572,32.063,96.558"/>
	</g>
	<polygon fill="#124F8A" points="32.511,95.659 32.481,94.692 31.509,94.714 31.537,95.695 	"/>
	<g>
		<path fill="#124F8A" d="M31.996,94.704c0.269-0.005,0.49,0.206,0.5,0.472c0.008,0.267-0.203,0.491-0.473,0.501
			c-0.269,0.01-0.494-0.201-0.502-0.472C31.511,94.934,31.727,94.709,31.996,94.704"/>
	</g>
	<polygon fill="#124F8A" points="31.496,93.826 32.47,93.817 32.47,92.853 31.496,92.845 	"/>
	<g>
		<path fill="#124F8A" d="M31.983,92.848c0.269,0.002,0.485,0.221,0.484,0.487c0.001,0.266-0.216,0.484-0.484,0.487
			c-0.269,0.003-0.489-0.216-0.491-0.487C31.494,93.063,31.715,92.845,31.983,92.848"/>
	</g>
	<polygon fill="#124F8A" points="32.482,91.976 32.511,91.011 31.536,90.974 31.509,91.954 	"/>
	<g>
		<path fill="#124F8A" d="M32.023,90.993c0.27,0.01,0.48,0.234,0.474,0.501c-0.012,0.267-0.232,0.478-0.501,0.472
			c-0.269-0.005-0.484-0.23-0.475-0.502C31.528,91.194,31.755,90.982,32.023,90.993"/>
	</g>
	<polygon fill="#124F8A" points="32.549,90.137 32.607,89.172 31.635,89.106 31.576,90.087 	"/>
	<g>
		<path fill="#124F8A" d="M32.121,89.138c0.269,0.019,0.471,0.251,0.457,0.516c-0.017,0.265-0.246,0.471-0.516,0.457
			c-0.268-0.014-0.474-0.244-0.458-0.515C31.618,89.326,31.853,89.12,32.121,89.138"/>
	</g>
	<polygon fill="#124F8A" points="32.672,88.299 32.758,87.337 31.788,87.243 31.701,88.22 	"/>
	<g>
		<path fill="#124F8A" d="M32.273,87.289c0.268,0.028,0.465,0.264,0.439,0.53c-0.023,0.264-0.258,0.462-0.526,0.441
			c-0.268-0.022-0.468-0.258-0.444-0.529C31.767,87.461,32.005,87.264,32.273,87.289"/>
	</g>
	<polygon fill="#124F8A" points="32.849,86.467 32.963,85.507 31.996,85.384 31.88,86.359 	"/>
	<g>
		<path fill="#124F8A" d="M32.479,85.445c0.266,0.034,0.457,0.277,0.425,0.541c-0.033,0.265-0.271,0.456-0.54,0.425
			c-0.268-0.029-0.461-0.271-0.428-0.539C31.97,85.602,32.212,85.41,32.479,85.445"/>
	</g>
	<polygon fill="#124F8A" points="33.08,84.64 33.225,83.685 32.261,83.533 32.115,84.502 	"/>
	<g>
		<path fill="#124F8A" d="M32.743,83.608c0.267,0.042,0.445,0.29,0.407,0.554c-0.039,0.263-0.286,0.447-0.553,0.408
			c-0.266-0.036-0.45-0.285-0.412-0.554C32.226,83.749,32.479,83.566,32.743,83.608"/>
	</g>
	<polygon fill="#124F8A" points="33.367,82.821 33.539,81.87 32.582,81.689 32.406,82.656 	"/>
	<g>
		<path fill="#124F8A" d="M33.061,81.78c0.264,0.05,0.438,0.304,0.391,0.565c-0.049,0.263-0.298,0.439-0.563,0.393
			c-0.265-0.046-0.445-0.299-0.396-0.566S32.798,81.73,33.061,81.78"/>
	</g>
	<polygon fill="#124F8A" points="33.708,81.012 33.909,80.068 32.957,79.857 32.753,80.818 	"/>
	<g>
		<path fill="#124F8A" d="M33.434,79.962c0.262,0.058,0.428,0.316,0.374,0.578c-0.056,0.26-0.314,0.428-0.577,0.374
			c-0.266-0.053-0.433-0.311-0.377-0.577C32.908,80.07,33.17,79.904,33.434,79.962"/>
	</g>
	<polygon fill="#124F8A" points="34.104,79.214 34.333,78.276 33.389,78.037 33.155,78.991 	"/>
	<g>
		<path fill="#124F8A" d="M33.861,78.156c0.26,0.066,0.419,0.33,0.355,0.587c-0.063,0.26-0.325,0.421-0.586,0.359
			c-0.263-0.062-0.425-0.326-0.361-0.589C33.334,78.25,33.6,78.09,33.861,78.156"/>
	</g>
	<polygon fill="#124F8A" points="34.554,77.429 34.811,76.499 33.873,76.23 33.612,77.176 	"/>
	<g>
		<path fill="#124F8A" d="M34.343,76.364c0.257,0.074,0.41,0.343,0.338,0.599c-0.071,0.257-0.34,0.409-0.598,0.34
			c-0.26-0.07-0.415-0.338-0.342-0.6C33.814,76.442,34.083,76.29,34.343,76.364"/>
	</g>
	<polygon fill="#124F8A" points="35.057,75.659 35.344,74.737 34.415,74.44 34.125,75.377 	"/>
	<g>
		<path fill="#124F8A" d="M34.88,74.587c0.256,0.082,0.396,0.354,0.318,0.609c-0.077,0.255-0.35,0.399-0.607,0.322
			c-0.257-0.078-0.403-0.35-0.323-0.611C34.348,74.648,34.623,74.505,34.88,74.587"/>
	</g>
	<polygon fill="#124F8A" points="35.616,73.904 35.927,72.99 35.008,72.666 34.69,73.595 	"/>
	<g>
		<path fill="#124F8A" d="M35.469,72.828c0.253,0.091,0.388,0.367,0.302,0.619c-0.088,0.251-0.362,0.387-0.618,0.303
			c-0.255-0.086-0.393-0.363-0.304-0.62C34.938,72.874,35.215,72.738,35.469,72.828"/>
	</g>
	<polygon fill="#124F8A" points="36.225,72.167 36.565,71.263 35.657,70.913 35.311,71.83 	"/>
	<g>
		<path fill="#124F8A" d="M36.112,71.087c0.251,0.098,0.375,0.377,0.282,0.627c-0.094,0.25-0.375,0.376-0.628,0.284
			c-0.253-0.093-0.38-0.374-0.284-0.628C35.578,71.115,35.863,70.99,36.112,71.087"/>
	</g>
	<polygon fill="#124F8A" points="36.889,70.449 37.256,69.557 36.356,69.178 35.983,70.084 	"/>
	<g>
		<path fill="#124F8A" d="M36.807,69.366c0.247,0.106,0.365,0.389,0.265,0.636c-0.104,0.246-0.385,0.366-0.634,0.265
			c-0.25-0.1-0.374-0.387-0.269-0.637C36.273,69.38,36.559,69.262,36.807,69.366"/>
	</g>
	<polygon fill="#124F8A" points="37.602,68.752 37.997,67.871 37.11,67.465 36.709,68.36 	"/>
	<g>
		<path fill="#124F8A" d="M37.555,67.668c0.245,0.113,0.35,0.399,0.244,0.643c-0.109,0.244-0.397,0.352-0.644,0.245
			c-0.247-0.108-0.356-0.396-0.247-0.644C37.018,67.664,37.311,67.556,37.555,67.668"/>
	</g>
	<polygon fill="#124F8A" points="38.367,67.078 38.788,66.209 37.915,65.777 37.487,66.66 	"/>
	<g>
		<path fill="#124F8A" d="M38.351,65.992c0.242,0.119,0.342,0.411,0.226,0.65c-0.117,0.24-0.405,0.342-0.648,0.227
			c-0.243-0.115-0.348-0.408-0.228-0.652C37.818,65.973,38.11,65.873,38.351,65.992"/>
	</g>
	<polygon fill="#124F8A" points="39.182,65.428 39.63,64.572 38.77,64.113 38.314,64.983 	"/>
	<g>
		<path fill="#124F8A" d="M39.2,64.341c0.238,0.127,0.327,0.42,0.203,0.657c-0.122,0.237-0.416,0.329-0.656,0.207
			c-0.237-0.123-0.331-0.418-0.207-0.659C38.664,64.307,38.965,64.215,39.2,64.341"/>
	</g>
	<polygon fill="#124F8A" points="40.048,63.802 40.521,62.959 39.675,62.477 39.193,63.332 	"/>
	<g>
		<path fill="#124F8A" d="M40.098,62.717c0.232,0.135,0.315,0.431,0.185,0.663c-0.133,0.232-0.426,0.317-0.661,0.187
			c-0.235-0.129-0.322-0.428-0.189-0.664C39.566,62.666,39.865,62.583,40.098,62.717"/>
	</g>
	<polygon fill="#124F8A" points="40.959,62.203 41.459,61.376 40.629,60.867 40.121,61.707 	"/>
	<g>
		<path fill="#124F8A" d="M41.044,61.121c0.229,0.142,0.3,0.439,0.165,0.668c-0.138,0.228-0.437,0.302-0.669,0.166
			c-0.231-0.137-0.306-0.436-0.167-0.669S40.815,60.981,41.044,61.121"/>
	</g>
	<polygon fill="#124F8A" points="41.922,60.633 42.444,59.821 41.63,59.287 41.099,60.113 	"/>
	<g>
		<path fill="#124F8A" d="M42.037,59.554c0.225,0.147,0.289,0.448,0.145,0.672c-0.146,0.224-0.443,0.29-0.672,0.146
			c-0.227-0.143-0.297-0.447-0.147-0.673C41.51,59.47,41.812,59.405,42.037,59.554"/>
	</g>
	<polygon fill="#124F8A" points="42.93,59.092 43.478,58.297 42.678,57.738 42.121,58.546 	"/>
	<g>
		<path fill="#124F8A" d="M43.076,58.018c0.222,0.155,0.274,0.456,0.126,0.676c-0.151,0.22-0.454,0.276-0.678,0.126
			c-0.223-0.151-0.28-0.454-0.126-0.678C42.55,57.917,42.856,57.862,43.076,58.018"/>
	</g>
	<polygon fill="#124F8A" points="43.983,57.582 44.555,56.802 43.771,56.222 43.193,57.013 	"/>
	<g>
		<path fill="#124F8A" d="M44.163,56.511c0.215,0.161,0.261,0.466,0.104,0.68c-0.157,0.215-0.461,0.264-0.679,0.107
			c-0.218-0.157-0.269-0.464-0.108-0.683C43.641,56.397,43.947,56.351,44.163,56.511"/>
	</g>
	<polygon fill="#124F8A" points="45.081,56.104 45.677,55.343 44.912,54.739 44.308,55.512 	"/>
	<g>
		<path fill="#124F8A" d="M45.294,55.041c0.211,0.167,0.246,0.471,0.083,0.682c-0.162,0.211-0.469,0.249-0.683,0.085
			c-0.214-0.163-0.253-0.469-0.086-0.684C44.774,54.908,45.084,54.874,45.294,55.041"/>
	</g>
	<polygon fill="#124F8A" points="46.224,54.662 46.841,53.917 46.094,53.289 45.469,54.045 	"/>
	<g>
		<path fill="#124F8A" d="M46.467,53.603c0.206,0.173,0.234,0.48,0.063,0.684c-0.17,0.206-0.477,0.236-0.685,0.066
			c-0.208-0.169-0.24-0.478-0.066-0.687C45.954,53.457,46.262,53.429,46.467,53.603"/>
	</g>
	<polygon fill="#124F8A" points="47.407,53.25 48.047,52.526 47.32,51.877 46.672,52.613 	"/>
	<g>
		<path fill="#124F8A" d="M47.684,52.201c0.2,0.18,0.217,0.485,0.042,0.687c-0.175,0.2-0.483,0.22-0.686,0.044
			c-0.204-0.175-0.226-0.484-0.046-0.688C47.173,52.039,47.484,52.023,47.684,52.201"/>
	</g>
	<polygon fill="#124F8A" points="48.634,51.879 49.294,51.172 48.589,50.502 47.919,51.218 	"/>
	<g>
		<path fill="#124F8A" d="M48.942,50.836c0.192,0.186,0.202,0.493,0.02,0.687c-0.182,0.195-0.487,0.207-0.684,0.025
			c-0.199-0.182-0.213-0.494-0.027-0.69C48.438,50.661,48.746,50.652,48.942,50.836"/>
	</g>
	<polygon fill="#124F8A" points="49.901,50.541 50.583,49.858 49.897,49.164 49.204,49.861 	"/>
	<g>
		<path fill="#124F8A" d="M50.238,49.511c0.19,0.192,0.189,0.497,0.003,0.687s-0.496,0.19-0.688,0.003
			c-0.193-0.187-0.195-0.496-0.005-0.689C49.738,49.317,50.052,49.32,50.238,49.511"/>
	</g>
	<polygon fill="#124F8A" points="51.209,49.246 51.909,48.58 51.243,47.868 50.532,48.543 	"/>
	<g>
		<path fill="#124F8A" d="M51.576,48.224c0.183,0.196,0.175,0.505-0.02,0.687c-0.192,0.183-0.5,0.176-0.687-0.016
			c-0.188-0.194-0.181-0.506,0.017-0.691C51.085,48.017,51.392,48.026,51.576,48.224"/>
	</g>
	<polygon fill="#124F8A" points="52.553,47.986 53.272,47.343 52.63,46.611 51.896,47.265 	"/>
	<g>
		<path fill="#124F8A" d="M52.951,46.977c0.178,0.202,0.159,0.508-0.04,0.687c-0.198,0.178-0.505,0.161-0.688-0.039
			c-0.181-0.199-0.164-0.507,0.037-0.688C52.463,46.754,52.773,46.775,52.951,46.977"/>
	</g>
	<polygon fill="#124F8A" points="53.935,46.771 54.675,46.147 54.051,45.396 53.301,46.029 	"/>
	<g>
		<path fill="#124F8A" d="M54.362,45.772c0.17,0.207,0.144,0.515-0.06,0.685c-0.204,0.171-0.51,0.147-0.685-0.057
			c-0.174-0.204-0.152-0.516,0.055-0.688C53.885,45.537,54.191,45.565,54.362,45.772"/>
	</g>
	<polygon fill="#124F8A" points="55.351,45.594 56.109,44.995 55.512,44.226 54.74,44.834 	"/>
	<g>
		<path fill="#124F8A" d="M55.811,44.61c0.163,0.214,0.126,0.516-0.081,0.684c-0.209,0.165-0.514,0.129-0.685-0.08
			c-0.17-0.21-0.134-0.517,0.079-0.685C55.335,44.358,55.646,44.398,55.811,44.61"/>
	</g>
	<polygon fill="#124F8A" points="56.804,44.462 57.578,43.886 57.004,43.098 56.216,43.686 	"/>
	<g>
		<path fill="#124F8A" d="M57.291,43.492c0.159,0.217,0.111,0.522-0.103,0.68c-0.213,0.157-0.517,0.116-0.679-0.098
			c-0.163-0.213-0.12-0.523,0.098-0.684C56.827,43.229,57.132,43.274,57.291,43.492"/>
	</g>
	<polygon fill="#124F8A" points="58.288,43.373 59.079,42.821 58.529,42.018 57.723,42.579 	"/>
	<g>
		<path fill="#124F8A" d="M58.804,42.418c0.153,0.223,0.097,0.523-0.121,0.677c-0.217,0.153-0.521,0.099-0.677-0.119
			c-0.156-0.219-0.104-0.524,0.119-0.68C58.346,42.139,58.653,42.197,58.804,42.418"/>
	</g>
	<polygon fill="#124F8A" points="59.806,42.332 60.613,41.799 60.087,40.981 59.265,41.52 	"/>
	<g>
		<path fill="#124F8A" d="M60.35,41.391c0.146,0.226,0.082,0.528-0.142,0.673s-0.523,0.086-0.674-0.139
			c-0.147-0.223-0.088-0.529,0.139-0.676C59.901,41.101,60.205,41.165,60.35,41.391"/>
	</g>
	<polygon fill="#124F8A" points="61.352,41.333 62.177,40.829 61.674,39.994 60.837,40.506 	"/>
	<g>
		<path fill="#124F8A" d="M61.926,40.411c0.137,0.231,0.063,0.528-0.163,0.669c-0.226,0.139-0.526,0.067-0.668-0.161
			c-0.145-0.228-0.07-0.528,0.159-0.67C61.485,40.105,61.787,40.181,61.926,40.411"/>
	</g>
	<polygon fill="#124F8A" points="62.929,40.383 63.768,39.902 63.29,39.053 62.439,39.541 	"/>
	<g>
		<path fill="#124F8A" d="M63.528,39.478c0.132,0.234,0.052,0.531-0.182,0.663c-0.231,0.131-0.527,0.053-0.662-0.179
			c-0.136-0.232-0.056-0.534,0.18-0.667C63.1,39.162,63.398,39.243,63.528,39.478"/>
	</g>
	<polygon fill="#124F8A" points="64.533,39.48 65.388,39.025 64.936,38.162 64.069,38.623 	"/>
	<g>
		<path fill="#124F8A" d="M65.161,38.593c0.125,0.24,0.032,0.532-0.202,0.658s-0.529,0.036-0.658-0.2
			c-0.129-0.236-0.039-0.531,0.2-0.66C64.74,38.262,65.037,38.355,65.161,38.593"/>
	</g>
	<polygon fill="#124F8A" points="66.166,38.627 67.031,38.197 66.605,37.321 65.727,37.756 	"/>
	<g>
		<path fill="#124F8A" d="M66.818,37.758c0.118,0.242,0.018,0.535-0.221,0.652c-0.239,0.116-0.53,0.022-0.651-0.219
			c-0.122-0.24-0.025-0.536,0.218-0.655C66.408,37.417,66.702,37.518,66.818,37.758"/>
	</g>
	<polygon fill="#124F8A" points="67.82,37.822 68.7,37.42 68.3,36.531 67.409,36.939 	"/>
	<g>
		<path fill="#124F8A" d="M68.501,36.975c0.109,0.246,0,0.532-0.24,0.644c-0.244,0.112-0.532,0.005-0.646-0.239
			c-0.113-0.244-0.006-0.534,0.239-0.646C68.102,36.619,68.392,36.731,68.501,36.975"/>
	</g>
	<polygon fill="#124F8A" points="69.501,37.068 70.392,36.693 70.021,35.792 69.116,36.173 	"/>
	<g>
		<path fill="#124F8A" d="M70.205,36.243c0.104,0.249-0.013,0.534-0.26,0.636c-0.246,0.103-0.529-0.01-0.637-0.258
			c-0.106-0.246,0.008-0.534,0.258-0.641C69.816,35.876,70.104,35.994,70.205,36.243"/>
	</g>
	<polygon fill="#124F8A" points="71.202,36.365 72.104,36.018 71.76,35.105 70.844,35.459 	"/>
	<g>
		<path fill="#124F8A" d="M71.932,35.562c0.095,0.252-0.03,0.532-0.279,0.628c-0.247,0.097-0.53-0.029-0.629-0.277
			c-0.101-0.251,0.024-0.534,0.277-0.631C71.555,35.182,71.838,35.31,71.932,35.562"/>
	</g>
	<polygon fill="#124F8A" points="72.925,35.716 73.837,35.395 73.52,34.473 72.595,34.799 	"/>
	<g>
		<path fill="#124F8A" d="M73.678,34.934c0.087,0.255-0.046,0.532-0.299,0.619c-0.25,0.09-0.527-0.043-0.62-0.296
			c-0.09-0.252,0.041-0.533,0.298-0.623C73.313,34.543,73.593,34.679,73.678,34.934"/>
	</g>
	<polygon fill="#124F8A" points="74.665,35.116 75.587,34.824 75.299,33.893 74.363,34.19 	"/>
	<g>
		<path fill="#124F8A" d="M75.441,34.359c0.079,0.256-0.062,0.529-0.316,0.61c-0.254,0.081-0.527-0.06-0.609-0.316
			c-0.085-0.257,0.055-0.531,0.314-0.612C75.09,33.959,75.361,34.101,75.441,34.359"/>
	</g>
	<polygon fill="#124F8A" points="76.425,34.572 77.354,34.307 77.092,33.368 76.15,33.636 	"/>
	<g>
		<path fill="#124F8A" d="M77.224,33.836c0.071,0.26-0.079,0.528-0.336,0.6c-0.256,0.076-0.524-0.075-0.601-0.332
			c-0.076-0.259,0.073-0.529,0.335-0.605C76.883,33.426,77.151,33.579,77.224,33.836"/>
	</g>
	<polygon fill="#124F8A" points="78.197,34.079 79.135,33.843 78.903,32.895 77.953,33.137 	"/>
	<g>
		<path fill="#124F8A" d="M79.019,33.369c0.063,0.261-0.093,0.526-0.353,0.591c-0.258,0.064-0.522-0.091-0.591-0.352
			c-0.067-0.26,0.088-0.527,0.353-0.593C78.689,32.949,78.955,33.108,79.019,33.369"/>
	</g>
	<polygon fill="#124F8A" points="79.986,33.642 80.93,33.435 80.728,32.481 79.769,32.692 	"/>
	<g>
		<path fill="#124F8A" d="M80.829,32.958c0.055,0.264-0.112,0.519-0.371,0.578c-0.26,0.058-0.521-0.107-0.581-0.369
			c-0.059-0.262,0.106-0.523,0.37-0.582C80.512,32.524,80.773,32.695,80.829,32.958"/>
	</g>
	<polygon fill="#124F8A" points="81.786,33.258 82.737,33.079 82.563,32.12 81.599,32.302 	"/>
	<g>
		<path fill="#124F8A" d="M82.65,32.6c0.047,0.264-0.127,0.519-0.391,0.567c-0.262,0.048-0.515-0.122-0.567-0.388
			c-0.052-0.261,0.121-0.521,0.388-0.57C82.348,32.161,82.602,32.334,82.65,32.6"/>
	</g>
	<polygon fill="#124F8A" points="83.599,32.929 84.552,32.778 84.409,31.815 83.438,31.967 	"/>
	<g>
		<path fill="#124F8A" d="M84.481,32.297c0.04,0.265-0.144,0.513-0.407,0.556c-0.262,0.042-0.511-0.141-0.555-0.405
			c-0.045-0.266,0.137-0.515,0.404-0.558C84.191,31.846,84.442,32.03,84.481,32.297"/>
	</g>
	<polygon fill="#124F8A" points="85.42,32.656 86.377,32.534 86.262,31.566 85.288,31.689 	"/>
	<g>
		<path fill="#124F8A" d="M86.32,32.05c0.03,0.267-0.158,0.51-0.424,0.542c-0.264,0.036-0.505-0.153-0.543-0.419
			c-0.035-0.266,0.151-0.511,0.422-0.548C86.044,31.593,86.289,31.783,86.32,32.05"/>
	</g>
	<polygon fill="#124F8A" points="87.248,32.436 88.209,32.343 88.122,31.372 87.145,31.467 	"/>
	<g>
		<path fill="#124F8A" d="M88.166,31.857c0.022,0.268-0.172,0.505-0.438,0.531c-0.267,0.023-0.504-0.17-0.533-0.436
			c-0.027-0.269,0.167-0.51,0.438-0.534C87.904,31.392,88.143,31.589,88.166,31.857"/>
	</g>
	<polygon fill="#124F8A" points="89.08,32.271 90.046,32.208 89.987,31.235 89.009,31.3 	"/>
	<g>
		<path fill="#124F8A" d="M90.017,31.721c0.015,0.269-0.189,0.496-0.454,0.517c-0.268,0.018-0.498-0.185-0.518-0.453
			c-0.021-0.268,0.184-0.501,0.452-0.521C89.77,31.244,89.999,31.453,90.017,31.721"/>
	</g>
	<polygon fill="#124F8A" points="90.92,32.163 91.885,32.126 91.856,31.152 90.875,31.189 	"/>
	<g>
		<path fill="#124F8A" d="M91.871,31.638c0.007,0.269-0.204,0.495-0.47,0.504c-0.268,0.01-0.492-0.198-0.504-0.467
			c-0.013-0.268,0.198-0.497,0.468-0.508C91.638,31.159,91.862,31.37,91.871,31.638"/>
	</g>
	<polygon fill="#124F8A" points="92.745,31.133 92.759,32.107 93.726,32.1 93.728,31.125 	"/>
	<g>
		<path fill="#124F8A" d="M93.726,31.611c0,0.269-0.216,0.489-0.483,0.491c-0.266,0-0.485-0.214-0.489-0.482
			c-0.006-0.27,0.211-0.492,0.483-0.493C93.507,31.126,93.728,31.342,93.726,31.611"/>
	</g>
	<polygon fill="#124F8A" points="94.601,32.106 95.568,32.128 95.597,31.154 94.616,31.131 	"/>
	<g>
		<path fill="#124F8A" d="M95.583,31.642c-0.01,0.269-0.234,0.477-0.5,0.474c-0.266-0.006-0.479-0.227-0.475-0.496
			c0.003-0.27,0.226-0.484,0.498-0.478C95.377,31.146,95.59,31.374,95.583,31.642"/>
	</g>
	<polygon fill="#124F8A" points="96.441,32.161 97.407,32.21 97.466,31.237 96.483,31.187 	"/>
	<g>
		<path fill="#124F8A" d="M97.436,31.724c-0.017,0.269-0.245,0.474-0.512,0.459c-0.266-0.013-0.472-0.24-0.46-0.508
			c0.01-0.269,0.239-0.48,0.511-0.465C97.245,31.225,97.451,31.455,97.436,31.724"/>
	</g>
	<polygon fill="#124F8A" points="98.28,32.268 99.242,32.347 99.331,31.375 98.35,31.297 	"/>
	<g>
		<path fill="#124F8A" d="M99.287,31.861c-0.025,0.267-0.262,0.468-0.525,0.445c-0.268-0.023-0.465-0.256-0.447-0.524
			c0.021-0.269,0.256-0.47,0.524-0.447C99.11,31.357,99.312,31.593,99.287,31.861"/>
	</g>
	<polygon fill="#124F8A" points="100.113,32.432 101.073,32.54 101.188,31.571 100.215,31.462 	"/>
	<g>
		<path fill="#124F8A" d="M101.133,32.055c-0.033,0.268-0.273,0.457-0.539,0.428c-0.266-0.029-0.458-0.269-0.431-0.536
			c0.029-0.268,0.27-0.462,0.539-0.433C100.973,31.543,101.164,31.79,101.133,32.055"/>
	</g>
	<polygon fill="#124F8A" points="101.94,32.65 102.897,32.785 103.042,31.821 102.073,31.684 	"/>
	<g>
		<path fill="#124F8A" d="M102.971,32.304c-0.039,0.266-0.286,0.45-0.55,0.411c-0.263-0.038-0.45-0.282-0.415-0.549
			c0.037-0.265,0.283-0.455,0.551-0.415C102.826,31.79,103.01,32.038,102.971,32.304"/>
	</g>
	<polygon fill="#124F8A" points="103.762,32.921 104.716,33.086 104.888,32.127 103.923,31.959 	"/>
	<g>
		<path fill="#124F8A" d="M104.802,32.608c-0.049,0.264-0.3,0.44-0.564,0.395c-0.263-0.045-0.439-0.298-0.396-0.562
			c0.044-0.267,0.296-0.444,0.563-0.398C104.672,32.088,104.851,32.343,104.802,32.608"/>
	</g>
	<polygon fill="#124F8A" points="105.574,33.25 106.52,33.444 106.724,32.49 105.763,32.293 	"/>
	<g>
		<path fill="#124F8A" d="M106.621,32.967c-0.055,0.263-0.312,0.432-0.572,0.376c-0.264-0.051-0.433-0.307-0.382-0.572
			c0.053-0.264,0.312-0.435,0.576-0.382C106.508,32.445,106.68,32.704,106.621,32.967"/>
	</g>
	<polygon fill="#124F8A" points="107.373,33.631 108.316,33.854 108.547,32.907 107.59,32.682 	"/>
	<g>
		<path fill="#124F8A" d="M108.432,33.38c-0.064,0.26-0.327,0.423-0.586,0.362c-0.26-0.063-0.421-0.324-0.363-0.587
			c0.059-0.261,0.324-0.425,0.587-0.362C108.333,32.856,108.495,33.117,108.432,33.38"/>
	</g>
	<polygon fill="#124F8A" points="109.165,34.068 110.096,34.319 110.357,33.38 109.409,33.125 	"/>
	<g>
		<path fill="#124F8A" d="M110.226,33.85c-0.07,0.26-0.338,0.411-0.596,0.341c-0.257-0.067-0.409-0.334-0.345-0.593
			c0.069-0.261,0.335-0.416,0.599-0.347C110.145,33.319,110.299,33.59,110.226,33.85"/>
	</g>
	<polygon fill="#124F8A" points="110.938,34.559 111.863,34.837 112.153,33.906 111.21,33.624 	"/>
	<g>
		<path fill="#124F8A" d="M112.007,34.372c-0.079,0.257-0.352,0.402-0.606,0.323c-0.253-0.078-0.401-0.344-0.326-0.604
			c0.074-0.257,0.349-0.407,0.608-0.327C111.941,33.842,112.087,34.115,112.007,34.372"/>
	</g>
	<polygon fill="#124F8A" points="112.696,35.102 113.613,35.409 113.93,34.488 112.999,34.176 	"/>
	<g>
		<path fill="#124F8A" d="M113.771,34.949c-0.089,0.255-0.363,0.388-0.616,0.306c-0.253-0.084-0.389-0.36-0.309-0.615
			c0.085-0.257,0.36-0.395,0.617-0.31C113.723,34.414,113.857,34.695,113.771,34.949"/>
	</g>
	<polygon fill="#124F8A" points="114.438,35.7 115.345,36.033 115.688,35.122 114.766,34.783 	"/>
	<g>
		<path fill="#124F8A" d="M115.517,35.578c-0.096,0.252-0.375,0.381-0.625,0.287c-0.249-0.093-0.379-0.369-0.288-0.623
			c0.091-0.253,0.372-0.386,0.625-0.291C115.484,35.045,115.612,35.326,115.517,35.578"/>
	</g>
	<polygon fill="#124F8A" points="116.161,36.348 117.058,36.711 117.429,35.81 116.521,35.441 	"/>
	<g>
		<path fill="#124F8A" d="M117.241,36.26c-0.101,0.249-0.384,0.367-0.632,0.269c-0.246-0.1-0.368-0.384-0.269-0.633
			c0.096-0.251,0.382-0.373,0.633-0.272C117.226,35.725,117.347,36.012,117.241,36.26"/>
	</g>
	<polygon fill="#124F8A" points="117.862,37.051 118.748,37.439 119.146,36.55 118.248,36.155 	"/>
	<g>
		<path fill="#124F8A" d="M118.947,36.993c-0.109,0.245-0.396,0.358-0.641,0.249c-0.244-0.107-0.357-0.391-0.252-0.639
			c0.107-0.247,0.396-0.363,0.643-0.254C118.945,36.461,119.058,36.75,118.947,36.993"/>
	</g>
	<polygon fill="#124F8A" points="119.543,37.802 120.415,38.218 120.841,37.342 119.953,36.918 	"/>
	<g>
		<path fill="#124F8A" d="M120.629,37.779c-0.118,0.242-0.409,0.343-0.647,0.23c-0.242-0.114-0.346-0.406-0.232-0.648
			c0.113-0.245,0.404-0.349,0.65-0.233C120.645,37.244,120.746,37.538,120.629,37.779"/>
	</g>
	<polygon fill="#124F8A" points="121.201,38.606 122.061,39.047 122.512,38.183 121.639,37.735 	"/>
	<g>
		<path fill="#124F8A" d="M122.286,38.615c-0.126,0.238-0.418,0.332-0.655,0.209c-0.237-0.121-0.333-0.412-0.213-0.653
			s0.416-0.337,0.656-0.214C122.317,38.083,122.409,38.377,122.286,38.615"/>
	</g>
	<polygon fill="#124F8A" points="122.833,39.457 123.677,39.925 124.156,39.076 123.297,38.601 	"/>
	<g>
		<path fill="#124F8A" d="M123.917,39.5c-0.132,0.234-0.428,0.317-0.663,0.19c-0.232-0.129-0.318-0.425-0.189-0.661
			c0.128-0.237,0.425-0.323,0.661-0.192C123.965,38.967,124.049,39.265,123.917,39.5"/>
	</g>
	<polygon fill="#124F8A" points="124.438,40.36 125.268,40.853 125.771,40.017 124.928,39.517 	"/>
	<g>
		<path fill="#124F8A" d="M125.518,40.435c-0.135,0.23-0.436,0.305-0.664,0.168c-0.229-0.133-0.308-0.431-0.173-0.664
			c0.138-0.233,0.437-0.313,0.67-0.174C125.584,39.905,125.658,40.204,125.518,40.435"/>
	</g>
	<polygon fill="#124F8A" points="126.015,41.309 126.832,41.826 127.359,41.006 126.529,40.48 	"/>
	<g>
		<path fill="#124F8A" d="M127.096,41.416c-0.146,0.225-0.447,0.292-0.673,0.15c-0.224-0.143-0.293-0.443-0.149-0.671
			c0.14-0.229,0.442-0.297,0.673-0.151C127.174,40.886,127.24,41.19,127.096,41.416"/>
	</g>
	<polygon fill="#124F8A" points="127.563,42.305 128.363,42.846 128.917,42.042 128.103,41.493 	"/>
	<g>
		<path fill="#124F8A" d="M128.641,42.445c-0.154,0.222-0.458,0.279-0.677,0.129c-0.221-0.149-0.28-0.45-0.13-0.674
			c0.147-0.225,0.451-0.285,0.677-0.133C128.734,41.92,128.792,42.224,128.641,42.445"/>
	</g>
	<polygon fill="#124F8A" points="129.081,43.347 129.864,43.912 130.441,43.126 129.644,42.552 	"/>
	<g>
		<path fill="#124F8A" d="M130.151,43.519c-0.156,0.217-0.46,0.265-0.679,0.11c-0.214-0.156-0.266-0.46-0.111-0.679
			c0.158-0.22,0.463-0.27,0.683-0.112S130.312,43.301,130.151,43.519"/>
	</g>
	<polygon fill="#124F8A" points="130.565,44.435 131.332,45.023 131.934,44.255 131.153,43.657 	"/>
	<g>
		<path fill="#124F8A" d="M131.631,44.638c-0.162,0.213-0.47,0.253-0.68,0.089c-0.212-0.162-0.255-0.466-0.091-0.68
			c0.16-0.216,0.47-0.257,0.685-0.093C131.759,44.12,131.798,44.426,131.631,44.638"/>
	</g>
	<polygon fill="#124F8A" points="132.02,45.566 132.768,46.176 133.391,45.426 132.63,44.806 	"/>
	<g>
		<path fill="#124F8A" d="M133.079,45.801c-0.172,0.206-0.476,0.237-0.686,0.068c-0.206-0.168-0.236-0.475-0.07-0.684
			c0.169-0.211,0.478-0.242,0.688-0.071C133.22,45.286,133.253,45.594,133.079,45.801"/>
	</g>
	<polygon fill="#124F8A" points="133.438,46.74 134.168,47.372 134.813,46.642 134.071,45.998 	"/>
	<g>
		<path fill="#124F8A" d="M134.489,47.007c-0.178,0.201-0.485,0.223-0.686,0.047c-0.202-0.174-0.226-0.479-0.052-0.684
			c0.176-0.204,0.484-0.229,0.69-0.052C134.646,46.496,134.667,46.806,134.489,47.007"/>
	</g>
	<polygon fill="#124F8A" points="134.82,47.956 135.531,48.61 136.197,47.898 135.475,47.233 	"/>
	<g>
		<path fill="#124F8A" d="M135.862,48.254c-0.183,0.197-0.489,0.207-0.687,0.028c-0.195-0.181-0.208-0.489-0.028-0.687
			c0.182-0.201,0.49-0.214,0.688-0.03C136.035,47.749,136.049,48.059,135.862,48.254"/>
	</g>
	<polygon fill="#124F8A" points="136.164,49.213 136.855,49.89 137.543,49.198 136.841,48.511 	"/>
	<g>
		<path fill="#124F8A" d="M137.2,49.543c-0.19,0.19-0.5,0.193-0.688,0.006c-0.19-0.186-0.195-0.493-0.009-0.687
			c0.185-0.194,0.495-0.199,0.692-0.009C137.386,49.043,137.39,49.353,137.2,49.543"/>
	</g>
	<polygon fill="#124F8A" points="137.473,50.509 138.142,51.206 138.85,50.534 138.169,49.827 	"/>
	<g>
		<path fill="#124F8A" d="M138.497,50.87c-0.197,0.185-0.502,0.178-0.689-0.014c-0.183-0.192-0.18-0.5,0.013-0.687
			c0.192-0.19,0.502-0.184,0.688,0.011C138.7,50.375,138.691,50.685,138.497,50.87"/>
	</g>
	<polygon fill="#124F8A" points="138.74,51.846 139.391,52.561 140.117,51.912 139.456,51.185 	"/>
	<g>
		<path fill="#124F8A" d="M139.753,52.235c-0.201,0.18-0.508,0.164-0.687-0.034c-0.18-0.197-0.164-0.504,0.033-0.686
			c0.196-0.183,0.504-0.17,0.689,0.031C139.97,51.747,139.954,52.057,139.753,52.235"/>
	</g>
	<polygon fill="#124F8A" points="139.966,53.216 140.596,53.951 141.342,53.324 140.704,52.577 	"/>
	<g>
		<path fill="#124F8A" d="M140.969,53.638c-0.207,0.173-0.513,0.147-0.685-0.054c-0.175-0.203-0.149-0.509,0.053-0.686
			c0.203-0.178,0.51-0.153,0.686,0.053C141.202,53.156,141.175,53.466,140.969,53.638"/>
	</g>
	<polygon fill="#124F8A" points="141.152,54.625 141.757,55.378 142.524,54.773 141.907,54.01 	"/>
	<g>
		<path fill="#124F8A" d="M142.142,55.075c-0.212,0.167-0.52,0.134-0.685-0.075c-0.166-0.207-0.135-0.512,0.073-0.682
			c0.209-0.171,0.517-0.14,0.688,0.072C142.386,54.601,142.352,54.909,142.142,55.075"/>
	</g>
	<polygon fill="#124F8A" points="142.298,56.068 142.88,56.839 143.663,56.258 143.068,55.475 	"/>
	<g>
		<path fill="#124F8A" d="M143.271,56.548c-0.216,0.161-0.519,0.116-0.682-0.095c-0.159-0.213-0.118-0.519,0.094-0.681
			c0.214-0.166,0.521-0.123,0.685,0.093C143.531,56.082,143.486,56.389,143.271,56.548"/>
	</g>
	<polygon fill="#124F8A" points="143.396,57.545 143.955,58.333 144.756,57.776 144.187,56.976 	"/>
	<g>
		<path fill="#124F8A" d="M144.356,58.054c-0.221,0.153-0.525,0.101-0.679-0.117c-0.154-0.216-0.104-0.519,0.113-0.678
			c0.217-0.157,0.524-0.107,0.682,0.115C144.628,57.595,144.576,57.901,144.356,58.054"/>
	</g>
	<polygon fill="#124F8A" points="144.452,59.055 144.986,59.858 145.803,59.326 145.259,58.509 	"/>
	<g>
		<path fill="#124F8A" d="M145.395,59.592c-0.226,0.146-0.526,0.085-0.674-0.136c-0.15-0.223-0.086-0.525,0.135-0.675
			c0.222-0.152,0.525-0.091,0.677,0.134C145.683,59.142,145.62,59.445,145.395,59.592"/>
	</g>
	<polygon fill="#124F8A" points="145.459,60.595 145.971,61.415 146.803,60.906 146.283,60.073 	"/>
	<g>
		<path fill="#124F8A" d="M146.387,61.161c-0.229,0.139-0.529,0.069-0.669-0.158c-0.142-0.226-0.073-0.525,0.154-0.67
			c0.225-0.144,0.529-0.075,0.672,0.156C146.687,60.719,146.615,61.021,146.387,61.161"/>
	</g>
	<polygon fill="#124F8A" points="146.424,62.164 146.908,62.999 147.755,62.516 147.261,61.667 	"/>
	<g>
		<path fill="#124F8A" d="M147.332,62.757c-0.234,0.134-0.53,0.053-0.664-0.177c-0.137-0.23-0.058-0.528,0.174-0.664
			c0.231-0.138,0.528-0.059,0.667,0.174C147.646,62.325,147.565,62.623,147.332,62.757"/>
	</g>
	<polygon fill="#124F8A" points="147.338,63.762 147.797,64.612 148.658,64.154 148.188,63.291 	"/>
	<g>
		<path fill="#124F8A" d="M148.228,64.383c-0.238,0.126-0.532,0.037-0.657-0.198c-0.128-0.233-0.042-0.527,0.193-0.658
			c0.233-0.131,0.532-0.044,0.663,0.193C148.555,63.959,148.465,64.256,148.228,64.383"/>
	</g>
	<polygon fill="#124F8A" points="148.204,65.387 148.637,66.25 149.512,65.818 149.07,64.94 	"/>
	<g>
		<path fill="#124F8A" d="M149.074,66.033c-0.239,0.117-0.532,0.021-0.652-0.217c-0.119-0.237-0.023-0.53,0.215-0.653
			c0.24-0.123,0.533-0.027,0.654,0.215C149.416,65.62,149.318,65.915,149.074,66.033"/>
	</g>
	<polygon fill="#124F8A" points="149.02,67.037 149.429,67.913 150.313,67.508 149.899,66.618 	"/>
	<g>
		<path fill="#124F8A" d="M149.871,67.709c-0.246,0.111-0.534,0.006-0.645-0.236c-0.113-0.241-0.011-0.531,0.233-0.646
			c0.241-0.117,0.534-0.013,0.649,0.233C150.224,67.308,150.116,67.599,149.871,67.709"/>
	</g>
	<polygon fill="#124F8A" points="149.786,68.709 150.169,69.598 151.066,69.221 150.679,68.318 	"/>
	<g>
		<path fill="#124F8A" d="M150.617,69.409c-0.247,0.103-0.534-0.011-0.639-0.257c-0.104-0.244,0.009-0.53,0.254-0.638
			c0.246-0.109,0.534,0.003,0.641,0.254C150.982,69.017,150.866,69.305,150.617,69.409"/>
	</g>
	<polygon fill="#124F8A" points="150.501,70.407 150.855,71.305 151.766,70.955 151.404,70.041 	"/>
	<g>
		<path fill="#124F8A" d="M151.311,71.13c-0.251,0.096-0.531-0.027-0.63-0.276c-0.098-0.246,0.022-0.529,0.272-0.631
			c0.25-0.1,0.533,0.022,0.635,0.273C151.688,70.75,151.562,71.034,151.311,71.13"/>
	</g>
	<polygon fill="#124F8A" points="151.166,72.124 151.493,73.032 152.414,72.709 152.08,71.787 	"/>
	<g>
		<path fill="#124F8A" d="M151.953,72.871c-0.254,0.089-0.534-0.043-0.623-0.293c-0.088-0.252,0.041-0.529,0.293-0.623
			c0.251-0.093,0.533,0.037,0.623,0.291C152.339,72.503,152.208,72.782,151.953,72.871"/>
	</g>
	<polygon fill="#124F8A" points="151.776,73.86 152.076,74.778 153.005,74.484 152.7,73.55 	"/>
	<g>
		<path fill="#124F8A" d="M152.541,74.632c-0.258,0.081-0.53-0.06-0.612-0.312c-0.083-0.254,0.056-0.528,0.31-0.615
			c0.256-0.086,0.532,0.055,0.617,0.311C152.939,74.275,152.797,74.551,152.541,74.632"/>
	</g>
	<polygon fill="#124F8A" points="152.335,75.615 152.607,76.542 153.546,76.275 153.269,75.333 	"/>
	<g>
		<path fill="#124F8A" d="M153.075,76.408c-0.257,0.074-0.528-0.075-0.603-0.331c-0.073-0.256,0.07-0.525,0.33-0.603
			c0.257-0.078,0.53,0.068,0.605,0.33C153.484,76.064,153.335,76.335,153.075,76.408"/>
	</g>
	<polygon fill="#124F8A" points="152.841,77.385 153.082,78.32 154.028,78.082 153.783,77.132 	"/>
	<g>
		<path fill="#124F8A" d="M153.556,78.201c-0.262,0.066-0.522-0.092-0.592-0.349c-0.067-0.259,0.088-0.524,0.348-0.595
			c0.259-0.068,0.526,0.086,0.596,0.349C153.978,77.868,153.816,78.135,153.556,78.201"/>
	</g>
	<polygon fill="#124F8A" points="153.292,79.169 153.507,80.112 154.458,79.902 154.239,78.945 	"/>
	<g>
		<path fill="#124F8A" d="M153.983,80.007c-0.263,0.057-0.524-0.107-0.583-0.367c-0.057-0.26,0.104-0.52,0.364-0.582
			c0.263-0.062,0.526,0.101,0.587,0.366C154.41,79.688,154.246,79.95,153.983,80.007"/>
	</g>
	<polygon fill="#124F8A" points="153.69,80.967 153.876,81.915 154.833,81.735 154.646,80.771 	"/>
	<g>
		<path fill="#124F8A" d="M154.355,81.824c-0.264,0.05-0.518-0.122-0.572-0.384c-0.052-0.261,0.122-0.517,0.385-0.572
			c0.263-0.054,0.52,0.118,0.571,0.384C154.793,81.518,154.62,81.775,154.355,81.824"/>
	</g>
	<polygon fill="#124F8A" points="154.032,82.776 154.188,83.729 155.152,83.577 154.992,82.609 	"/>
	<g>
		<path fill="#124F8A" d="M154.67,83.653c-0.266,0.042-0.514-0.138-0.557-0.401c-0.046-0.263,0.134-0.513,0.396-0.56
			c0.267-0.046,0.52,0.133,0.564,0.4C155.118,83.361,154.936,83.611,154.67,83.653"/>
	</g>
	<polygon fill="#124F8A" points="154.319,84.595 154.448,85.552 155.415,85.429 155.282,84.457 	"/>
	<g>
		<path fill="#124F8A" d="M154.932,85.491c-0.267,0.033-0.513-0.153-0.548-0.418c-0.032-0.264,0.152-0.509,0.419-0.546
			c0.265-0.039,0.515,0.147,0.547,0.416C155.387,85.212,155.2,85.457,154.932,85.491"/>
	</g>
	<polygon fill="#124F8A" points="154.552,86.421 154.653,87.383 155.622,87.288 155.521,86.312 	"/>
	<g>
		<path fill="#124F8A" d="M155.138,87.335c-0.269,0.026-0.503-0.17-0.534-0.435c-0.028-0.264,0.166-0.503,0.434-0.534
			c0.266-0.03,0.508,0.164,0.537,0.434S155.403,87.309,155.138,87.335"/>
	</g>
	<polygon fill="#124F8A" points="154.73,88.253 154.804,89.216 155.775,89.152 155.701,88.173 	"/>
	<g>
		<path fill="#124F8A" d="M155.288,89.185c-0.268,0.017-0.502-0.185-0.52-0.45c-0.02-0.266,0.179-0.498,0.448-0.521
			c0.267-0.022,0.504,0.178,0.523,0.449C155.758,88.933,155.556,89.167,155.288,89.185"/>
	</g>
	<polygon fill="#124F8A" points="154.854,90.091 154.896,91.057 155.873,91.021 155.828,90.039 	"/>
	<g>
		<path fill="#124F8A" d="M155.384,91.038c-0.269,0.01-0.495-0.199-0.507-0.465c-0.013-0.266,0.196-0.494,0.463-0.508
			c0.271-0.014,0.499,0.194,0.51,0.465C155.863,90.801,155.654,91.029,155.384,91.038"/>
	</g>
	<polygon fill="#124F8A" points="154.921,91.931 154.936,92.897 155.912,92.89 155.897,91.909 	"/>
	<g>
		<path fill="#124F8A" d="M155.423,92.894c-0.271,0.001-0.486-0.213-0.491-0.48c-0.006-0.266,0.209-0.488,0.478-0.494
			c0.269-0.006,0.493,0.208,0.496,0.48C155.911,92.67,155.692,92.892,155.423,92.894"/>
	</g>
	<rect x="7.212" y="70.211" fill="#124F8A" width="171.359" height="45.36"/>
	<polygon fill="#FFFFFF" points="31.727,83.895 35.029,83.895 35.029,98.69 31.727,98.69 31.727,92.87 25.842,92.87 25.842,98.69 
		22.54,98.69 22.54,83.895 25.842,83.895 25.842,90.076 31.727,90.076 	"/>
	<g>
		<path fill="#FFFFFF" d="M45.169,90.288c-0.438-0.367-0.971-0.551-1.598-0.551c-0.629,0-1.204,0.191-1.727,0.572
			c-0.521,0.381-0.825,0.896-0.91,1.545h4.996C45.86,91.176,45.606,90.655,45.169,90.288 M48.217,97.04
			c-1.284,1.214-2.791,1.821-4.519,1.821c-1.729,0-3.158-0.533-4.287-1.599c-1.129-1.065-1.693-2.494-1.693-4.286
			s0.574-3.218,1.726-4.276c1.149-1.058,2.508-1.588,4.074-1.588s2.896,0.473,3.99,1.418c1.093,0.946,1.642,2.244,1.642,3.895v1.694
			h-8.3c0.1,0.621,0.425,1.129,0.975,1.524c0.551,0.395,1.172,0.593,1.863,0.593c1.114,0,2.031-0.374,2.752-1.122L48.217,97.04z"/>
	</g>
	<rect x="51.435" y="82.984" fill="#FFFFFF" width="3.175" height="15.707"/>
	<g>
		<path fill="#FFFFFF" d="M60.748,93.007c0,0.925,0.257,1.68,0.772,2.265c0.516,0.586,1.14,0.879,1.873,0.879
			c0.734,0,1.376-0.293,1.927-0.879c0.551-0.585,0.825-1.337,0.825-2.254s-0.268-1.686-0.804-2.307
			c-0.537-0.621-1.179-0.932-1.927-0.932s-1.379,0.307-1.895,0.921C61.005,91.314,60.748,92.083,60.748,93.007 M64.241,87.112
			c1.325,0,2.508,0.554,3.546,1.661c1.037,1.108,1.556,2.502,1.556,4.181c0,1.68-0.519,3.084-1.556,4.213
			c-1.038,1.129-2.252,1.693-3.642,1.693s-2.509-0.557-3.354-1.672v5.609h-3.176V87.302h3.176v1.271
			C61.764,87.599,62.914,87.112,64.241,87.112"/>
		<path fill="#FFFFFF" d="M77.65,89.663c0.374-0.529,0.562-1.041,0.562-1.535c0-0.493-0.163-0.906-0.487-1.238
			c-0.325-0.331-0.741-0.498-1.249-0.498c-0.931,0-1.813,0.664-2.646,1.99l-2.646-1.566c0.691-1.072,1.45-1.884,2.276-2.434
			c0.824-0.551,1.876-0.826,3.153-0.826s2.399,0.406,3.365,1.217c0.967,0.812,1.451,1.916,1.451,3.313
			c0,0.762-0.195,1.492-0.583,2.191c-0.388,0.698-1.104,1.591-2.148,2.678l-2.667,2.773h5.843v2.963H71.438v-2.455l4.34-4.446
			C76.652,90.901,77.276,90.192,77.65,89.663"/>
		<path fill="#FFFFFF" d="M92.605,91.039c0.395-0.444,0.593-1.093,0.593-1.947s-0.258-1.461-0.772-1.821
			c-0.516-0.359-1.316-0.539-2.402-0.539H88.14v4.974h2.222C91.463,91.706,92.211,91.483,92.605,91.039 M95.029,85.217
			c1.037,0.882,1.557,2.237,1.557,4.064c0,1.828-0.533,3.165-1.599,4.012c-1.065,0.846-2.691,1.27-4.88,1.27H88.14v4.127h-3.304
			V83.895h5.229C92.338,83.895,93.992,84.335,95.029,85.217"/>
		<path fill="#FFFFFF" d="M104.841,90.097c-0.946,0-1.651,0.335-2.117,1.006c-0.466,0.67-0.698,1.556-0.698,2.656v4.932H98.85
			V87.303h3.176v1.503c0.409-0.466,0.92-0.861,1.534-1.186c0.614-0.324,1.239-0.493,1.873-0.507l0.022,2.984H104.841z"/>
		<path fill="#FFFFFF" d="M109.921,92.997c0,0.931,0.265,1.69,0.794,2.275c0.529,0.586,1.206,0.879,2.032,0.879
			c0.825,0,1.503-0.293,2.032-0.879c0.528-0.585,0.794-1.344,0.794-2.275c0-0.932-0.266-1.694-0.794-2.286
			c-0.529-0.593-1.207-0.889-2.032-0.889c-0.826,0-1.503,0.296-2.032,0.889C110.186,91.303,109.921,92.065,109.921,92.997
			 M118.77,92.997c0,1.651-0.572,3.041-1.715,4.17c-1.144,1.129-2.58,1.693-4.308,1.693c-1.729,0-3.165-0.564-4.308-1.693
			c-1.144-1.129-1.715-2.519-1.715-4.17c0-1.651,0.571-3.045,1.715-4.181c1.143-1.136,2.578-1.704,4.308-1.704
			c1.728,0,3.164,0.568,4.308,1.704C118.197,89.952,118.77,91.346,118.77,92.997"/>
		<path fill="#FFFFFF" d="M124.696,89.588v5.102c0,0.437,0.112,0.779,0.339,1.026c0.225,0.247,0.494,0.371,0.804,0.371
			c0.593,0,1.094-0.268,1.503-0.805l1.187,2.223c-0.989,0.903-2.029,1.355-3.123,1.355c-1.095,0-2.019-0.36-2.773-1.08
			c-0.755-0.72-1.132-1.7-1.132-2.942v-5.25h-1.334v-2.286h1.334v-3.408h3.196v3.408h2.752v2.286H124.696z"/>
		<path fill="#FFFFFF" d="M137.037,90.288c-0.438-0.367-0.972-0.551-1.599-0.551c-0.628,0-1.204,0.191-1.726,0.572
			c-0.522,0.381-0.825,0.896-0.91,1.545h4.996C137.728,91.176,137.474,90.655,137.037,90.288 M140.085,97.04
			c-1.284,1.214-2.791,1.821-4.52,1.821s-3.157-0.533-4.286-1.599c-1.13-1.065-1.693-2.494-1.693-4.286s0.575-3.218,1.725-4.276
			c1.15-1.058,2.508-1.588,4.075-1.588c1.566,0,2.896,0.473,3.99,1.418c1.093,0.946,1.641,2.244,1.641,3.895v1.694h-8.298
			c0.098,0.621,0.423,1.129,0.973,1.524c0.552,0.395,1.173,0.593,1.863,0.593c1.115,0,2.032-0.374,2.752-1.122L140.085,97.04z"/>
		<path fill="#FFFFFF" d="M148.764,96.045c1.058,0,2.011-0.529,2.858-1.588l1.884,2.117c-1.468,1.524-3.057,2.286-4.764,2.286
			s-3.15-0.539-4.328-1.619c-1.18-1.079-1.769-2.49-1.769-4.234c0-1.742,0.597-3.16,1.789-4.254
			c1.192-1.094,2.607-1.641,4.244-1.641c0.819,0,1.648,0.17,2.488,0.508c0.839,0.339,1.577,0.84,2.211,1.503l-1.651,2.159
			c-0.367-0.437-0.814-0.776-1.344-1.016c-0.529-0.24-1.055-0.36-1.577-0.36c-0.833,0-1.549,0.272-2.147,0.815
			c-0.601,0.544-0.9,1.299-0.9,2.265c0,0.967,0.3,1.719,0.9,2.255C147.257,95.777,147.96,96.045,148.764,96.045"/>
		<path fill="#FFFFFF" d="M159.411,89.588v5.102c0,0.437,0.112,0.779,0.339,1.026c0.225,0.247,0.494,0.371,0.804,0.371
			c0.593,0,1.093-0.268,1.503-0.805l1.187,2.223c-0.989,0.903-2.029,1.355-3.123,1.355c-1.095,0-2.019-0.36-2.773-1.08
			c-0.755-0.72-1.132-1.7-1.132-2.942v-5.25h-1.334v-2.286h1.334v-3.408h3.196v3.408h2.752v2.286H159.411z"/>
	</g>
	<polygon fill="#124F8A" points="92.891,40.54 94.058,46.222 99.821,45.574 94.778,48.439 97.174,53.721 92.891,49.809 
		88.609,53.721 91.006,48.439 85.961,45.574 91.726,46.222 	"/>
	<polygon fill="#124F8A" points="92.891,132.061 94.058,137.743 99.821,137.096 94.778,139.96 97.174,145.242 92.891,141.33 
		88.609,145.242 91.006,139.96 85.961,137.096 91.726,137.743 	"/>
	<polygon fill="#124F8A" points="125.65,122.84 126.817,128.522 132.581,127.875 127.538,130.74 129.934,136.021 125.65,132.109 
		121.369,136.021 123.766,130.74 118.722,127.875 124.485,128.522 	"/>
	<polygon fill="#124F8A" points="60.131,122.84 61.297,128.522 67.062,127.875 62.019,130.74 64.413,136.021 60.131,132.109 
		55.85,136.021 58.246,130.74 53.201,127.875 58.965,128.522 	"/>
	<polygon fill="#124F8A" points="125.65,49.76 126.817,55.442 132.581,54.794 127.538,57.66 129.934,62.941 125.65,59.029 
		121.369,62.941 123.766,57.66 118.722,54.794 124.485,55.442 	"/>
	<polygon fill="#124F8A" points="60.131,49.76 61.297,55.442 67.062,54.794 62.019,57.66 64.413,62.941 60.131,59.029 55.85,62.941 
		58.246,57.66 53.201,54.794 58.965,55.442 	"/>
</g>
</svg>
